<?xml version="1.0" encoding="UTF-8"?>
<svg width="1083px" height="822px" viewBox="0 0 1083 822" version="1.1" xmlns="http://www.w3.org/2000/svg" xmlns:xlink="http://www.w3.org/1999/xlink">
    <!-- Generator: Sketch 60.1 (88133) - https://sketch.com -->
    <title>classify</title>
    <desc>Created with Sketch.</desc>
    <defs>
        <linearGradient x1="49.9704824%" y1="100.003133%" x2="49.9704824%" y2="-0.0043332453%" id="linearGradient-1">
            <stop stop-color="#808080" stop-opacity="0.25" offset="0%"></stop>
            <stop stop-color="#808080" stop-opacity="0.12" offset="54%"></stop>
            <stop stop-color="#808080" stop-opacity="0.1" offset="100%"></stop>
        </linearGradient>
    </defs>
    <g id="Page-1" stroke="none" stroke-width="1" fill="none" fill-rule="evenodd">
        <g id="classify" fill-rule="nonzero">
            <path d="M1003.79,583.39 C1000.42333,586.35 996.973333,589.23 993.44,592.03 C992.85,592.51 992.24,593.03 991.64,593.46 C979.065274,603.215417 965.863541,612.134604 952.12,620.16 C936.35,629.48 919.89,637.96 903.21,645.96 C878.137709,658.090987 852.456996,668.922013 826.27,678.41 L825.09,678.84 C813.57,682.946667 801.92,686.736667 790.14,690.21 L789.93,690.27 C781.71,692.67 773.433333,694.886667 765.1,696.92 L763.96,697.2 C751.693333,700.16 739.303333,702.676667 726.79,704.75 L723.91,705.21 C714.763333,706.65 705.553333,707.823333 696.28,708.73 C644.16,713.73 591.41,709.67 539.61,702.65 C435,688.46 331.78,661.86 237.61,620.16 C201.728628,604.347329 167.003061,586.032199 133.69,565.35 C128.97,562.41 124.28,559.41 119.62,556.35 C118.89,555.86 118.15,555.35 117.42,554.88 C71.48,524.17 29.99,486.77 10.69,439.57 C-10.84,386.88 2.94,320.1 56.27,288.91 C74.69,278.21 95.94,272.38 117.44,267.57 L119.64,267.08 C123.28,266.28 126.92,265.51 130.55,264.74 C143.24,262.05 156,259.38 168.64,256.39 L168.64,256.39 C192.13,250.86 215.21,244.26 236.72,234.57 C238.306667,233.863333 239.886667,233.133333 241.46,232.38 C258.29,224.38 276.6,212.74 290.46,198.76 C302.4,186.69 310.99,172.85 312.41,158 L312.41,158 C312.81954,153.781319 312.631011,149.525935 311.85,145.36 C310.37,137.46 308.94,129.74 307.85,122.2 C305.85,108.04 305.21,94.5 307.94,81.44 L307.94,81.44 C310.72,68.13 317.01,55.32 329.03,42.9 C330.85,41.02 332.803333,39.15 334.89,37.29 C344.596049,28.7736807 355.57568,21.8295869 367.43,16.71 C368.903333,16.0433333 370.383333,15.42 371.87,14.84 C404.87,1.48 444.54,-1.31 481.6,0.53 C516.225694,2.3077551 550.631605,7.08904917 584.43,14.82 C587.11,15.42 589.79,16.05 592.43,16.69 C621.192614,23.6536642 649.49398,32.4005697 677.17,42.88 C758.54,73.48 834.69,117.57 905.11,165.43 L908.47,167.72 C910.116667,168.846667 911.763333,169.98 913.41,171.12 C916.783333,173.44 920.136667,175.773333 923.47,178.12 C925.95,179.846667 928.423333,181.586667 930.89,183.34 L930.89,183.34 L936.2,187.11 L939.51,189.49 C957.51,202.49 975.22,215.96 991.63,230.41 L993.43,232.01 C1013.43,249.81 1031.54,269.07 1046.04,290.57 C1107.55,381.81 1089.31,508.22 1003.79,583.39 Z" id="Path" fill="#FF3B30" opacity="0.1"></path>
            <path d="M993.44,14.82 L993.44,592.03 C992.85,592.51 992.24,593.03 991.64,593.46 C979.065274,603.215417 965.863541,612.134604 952.12,620.16 L237.69,620.16 C201.781271,604.350702 167.028868,586.035518 133.69,565.35 C128.97,562.41 124.28,559.41 119.62,556.35 C118.89,555.86 118.15,555.35 117.42,554.88 L117.42,14.88 L993.44,14.82 Z" id="Path" fill="#000000" opacity="0.03"></path>
            <path d="M991.69,16.69 L991.69,593.46 C979.115274,603.215417 965.913541,612.134604 952.17,620.16 L237.69,620.16 C201.781271,604.350702 167.028868,586.035518 133.69,565.35 C128.97,562.41 124.28,559.41 119.62,556.35 L119.62,16.69 L991.69,16.69 Z" id="Path" fill="#FEFEFE"></path>
            <g id="Group" opacity="0.7" transform="translate(761.000000, 233.000000)" fill="#FF6584">
                <path d="M21.1,0.92 C9.50202025,0.92 0.1,10.3220203 0.1,21.92 C0.1,33.5179797 9.50202025,42.92 21.1,42.92 C32.6979797,42.92 42.1,33.5179797 42.1,21.92 C42.1,10.3220203 32.6979797,0.92 21.1,0.92 L21.1,0.92 Z M21.1,38.92 C11.7111593,38.92 4.09995683,31.3088407 4.09995683,21.92 C4.0956709,20.0193953 4.41698523,18.1320964 5.05,16.34 C5.05,16.34 5.05,16.34 5.05,16.34 C7.88048862,8.14531305 16.4241696,3.39343461 24.8791274,5.31131069 C33.3340852,7.22918677 38.9912952,15.2023172 38.0090112,23.8162407 C37.0267271,32.4301642 29.7196794,38.9249225 21.05,38.89 L21.1,38.92 Z" id="Shape"></path>
                <path d="M27.54,31.04 L30.18,28.39 C30.4010648,28.1703678 30.5253789,27.8716215 30.5253789,27.56 C30.5253789,27.2483785 30.4010648,26.9496322 30.18,26.73 L25.41,21.95 L30.18,17.18 C30.4010648,16.9603678 30.5253789,16.6616215 30.5253789,16.35 C30.5253789,16.0383785 30.4010648,15.7396322 30.18,15.52 L27.54,12.87 C27.3186573,12.6483312 27.0182565,12.5237716 26.705,12.5237716 C26.3917435,12.5237716 26.0913427,12.6483312 25.87,12.87 L21.1,17.64 L16.33,12.87 C16.1103678,12.6489352 15.8116215,12.5246211 15.5,12.5246211 C15.1883785,12.5246211 14.8896322,12.6489352 14.67,12.87 L12.02,15.57 C11.7989352,15.7896322 11.6746211,16.0883785 11.6746211,16.4 C11.6746211,16.7116215 11.7989352,17.0103678 12.02,17.23 L16.79,22 L12.02,26.78 C11.7989352,26.9996322 11.6746211,27.2983785 11.6746211,27.61 C11.6746211,27.9216215 11.7989352,28.2203678 12.02,28.44 L14.67,31.09 C14.8896322,31.3110648 15.1883785,31.4353789 15.5,31.4353789 C15.8116215,31.4353789 16.1103678,31.3110648 16.33,31.09 L21.1,26.31 L25.87,31.09 C26.3487633,31.5272263 27.088252,31.5050859 27.54,31.04 L27.54,31.04 Z" id="Path"></path>
            </g>
            <path d="M740.13,402.91 L740.13,402.91 C739.081755,397.395508 735.869429,392.530202 731.21,389.4 L731.21,389.4 C726.5123,386.253023 720.747271,385.125239 715.21,386.27 L714.58,386.42 C713.446968,386.681653 712.339314,387.043063 711.27,387.5 C703.522658,390.828115 698.505532,398.454557 698.516397,406.886493 C698.527297,415.318428 703.564093,422.931894 711.32,426.24 L711.92,426.48 C718.390066,428.999445 725.687225,428.157972 731.414041,424.232041 C737.140857,420.306111 740.556956,413.803275 740.540063,406.86 C740.532056,405.533136 740.39474,404.210209 740.13,402.91 L740.13,402.91 Z M736.25,409.38 C736.254679,409.399726 736.254679,409.420274 736.25,409.44 L736.25,409.63 C735.365633,414.852125 732.097847,419.363696 727.411789,421.832209 C722.725731,424.300723 717.156877,424.444102 712.35,422.22 C712.148532,422.133425 711.951609,422.036633 711.76,421.93 C710.64443,421.361296 709.597618,420.666776 708.64,419.86 C704.429829,416.314462 702.196815,410.949946 702.647669,405.464227 C703.098523,399.978509 706.177441,395.050563 710.91,392.24 C711.968329,391.606779 713.095668,391.096792 714.27,390.72 L714.9,390.53 C720.012618,389.09969 725.499895,390.139947 729.734283,393.342228 C733.968672,396.544509 736.463947,401.541103 736.48,406.85 C736.46931,407.698035 736.392409,408.54394 736.25,409.38 L736.25,409.38 Z" id="Shape" fill="#FF3B30" opacity="0.1"></path>
            <path d="M725.92,415.94 L728.57,413.29 C728.791065,413.070368 728.915379,412.771621 728.915379,412.46 C728.915379,412.148379 728.791065,411.849632 728.57,411.63 L723.8,406.86 L728.57,402.09 C728.791669,401.868657 728.916228,401.568256 728.916228,401.255 C728.916228,400.941744 728.791669,400.641343 728.57,400.42 L725.92,397.78 C725.700368,397.558935 725.401621,397.434621 725.09,397.434621 C724.778379,397.434621 724.479632,397.558935 724.26,397.78 L719.49,402.57 L714.69,397.78 C714.470368,397.558935 714.171621,397.434621 713.86,397.434621 C713.548379,397.434621 713.249632,397.558935 713.03,397.78 L710.38,400.42 C710.158331,400.641343 710.033772,400.941744 710.033772,401.255 C710.033772,401.568256 710.158331,401.868657 710.38,402.09 L715.16,406.86 L710.38,411.63 C710.158935,411.849632 710.034621,412.148379 710.034621,412.46 C710.034621,412.771621 710.158935,413.070368 710.38,413.29 L713.03,415.94 C713.249632,416.161065 713.548379,416.285379 713.86,416.285379 C714.171621,416.285379 714.470368,416.161065 714.69,415.94 L719.47,411.17 L724.24,415.94 C724.460365,416.167283 724.763427,416.295568 725.08,416.295568 C725.396573,416.295568 725.699635,416.167283 725.92,415.94 Z" id="Path" fill="#FF3B30" opacity="0.1"></path>
            <path d="M678.02,95.89 L676.11,93.97 C675.921517,93.7744481 675.6616,93.6639741 675.39,93.6639741 C675.1184,93.6639741 674.858483,93.7744481 674.67,93.97 L662.67,105.86 L657.6,100.75 C657.41186,100.557587 657.154109,100.449124 656.885,100.449124 C656.615891,100.449124 656.35814,100.557587 656.17,100.75 L654.24,102.66 C654.044448,102.848483 653.933974,103.1084 653.933974,103.38 C653.933974,103.6516 654.044448,103.911517 654.24,104.1 L661.94,111.86 C662.128483,112.055552 662.3884,112.166026 662.66,112.166026 C662.9316,112.166026 663.191517,112.055552 663.38,111.86 L678.01,97.34 C678.210039,97.1525801 678.324371,96.8912603 678.326286,96.6171466 C678.328152,96.343033 678.217435,96.0801611 678.02,95.89 Z M678.02,95.89 L676.11,93.97 C675.921517,93.7744481 675.6616,93.6639741 675.39,93.6639741 C675.1184,93.6639741 674.858483,93.7744481 674.67,93.97 L662.67,105.86 L657.6,100.75 C657.41186,100.557587 657.154109,100.449124 656.885,100.449124 C656.615891,100.449124 656.35814,100.557587 656.17,100.75 L654.24,102.66 C654.044448,102.848483 653.933974,103.1084 653.933974,103.38 C653.933974,103.6516 654.044448,103.911517 654.24,104.1 L661.94,111.86 C662.128483,112.055552 662.3884,112.166026 662.66,112.166026 C662.9316,112.166026 663.191517,112.055552 663.38,111.86 L678.01,97.34 C678.210039,97.1525801 678.324371,96.8912603 678.326286,96.6171466 C678.328152,96.343033 678.217435,96.0801611 678.02,95.89 Z M678.02,95.89 L676.11,93.97 C675.921517,93.7744481 675.6616,93.6639741 675.39,93.6639741 C675.1184,93.6639741 674.858483,93.7744481 674.67,93.97 L662.67,105.86 L657.6,100.75 C657.41186,100.557587 657.154109,100.449124 656.885,100.449124 C656.615891,100.449124 656.35814,100.557587 656.17,100.75 L654.24,102.66 C654.044448,102.848483 653.933974,103.1084 653.933974,103.38 C653.933974,103.6516 654.044448,103.911517 654.24,104.1 L661.94,111.86 C662.128483,112.055552 662.3884,112.166026 662.66,112.166026 C662.9316,112.166026 663.191517,112.055552 663.38,111.86 L678.01,97.34 C678.210039,97.1525801 678.324371,96.8912603 678.326286,96.6171466 C678.328152,96.343033 678.217435,96.0801611 678.02,95.89 Z M678.02,95.89 L676.11,93.97 C675.921517,93.7744481 675.6616,93.6639741 675.39,93.6639741 C675.1184,93.6639741 674.858483,93.7744481 674.67,93.97 L662.67,105.86 L657.6,100.75 C657.41186,100.557587 657.154109,100.449124 656.885,100.449124 C656.615891,100.449124 656.35814,100.557587 656.17,100.75 L654.24,102.66 C654.044448,102.848483 653.933974,103.1084 653.933974,103.38 C653.933974,103.6516 654.044448,103.911517 654.24,104.1 L661.94,111.86 C662.128483,112.055552 662.3884,112.166026 662.66,112.166026 C662.9316,112.166026 663.191517,112.055552 663.38,111.86 L678.01,97.34 C678.210039,97.1525801 678.324371,96.8912603 678.326286,96.6171466 C678.328152,96.343033 678.217435,96.0801611 678.02,95.89 Z M666.13,80.78 C654.53202,80.78 645.13,90.1820203 645.13,101.78 C645.13,113.37798 654.53202,122.78 666.13,122.78 C677.72798,122.78 687.13,113.37798 687.13,101.78 C687.13,90.1820203 677.72798,80.78 666.13,80.78 L666.13,80.78 Z M666.13,118.78 C656.741159,118.78 649.13,111.168841 649.13,101.78 C649.13,92.3911593 656.741159,84.78 666.13,84.78 C675.518841,84.78 683.130027,92.3911593 683.130027,101.78 C683.138001,106.289292 681.348863,110.615907 678.15843,113.802586 C674.967998,116.989265 670.63928,118.773309 666.13,118.76 L666.13,118.78 Z M678.02,95.91 L676.11,93.99 C675.921517,93.7944481 675.6616,93.6839741 675.39,93.6839741 C675.1184,93.6839741 674.858483,93.7944481 674.67,93.99 L662.67,105.88 L657.6,100.77 C657.41186,100.577587 657.154109,100.469124 656.885,100.469124 C656.615891,100.469124 656.35814,100.577587 656.17,100.77 L654.24,102.68 C654.044448,102.868483 653.933974,103.1284 653.933974,103.4 C653.933974,103.6716 654.044448,103.931517 654.24,104.12 L661.94,111.88 C662.128483,112.075552 662.3884,112.186026 662.66,112.186026 C662.9316,112.186026 663.191517,112.075552 663.38,111.88 L678.01,97.36 C678.216505,97.1720841 678.335045,96.9063913 678.336967,96.6271901 C678.338843,96.3479889 678.22393,96.080708 678.02,95.89 L678.02,95.91 Z M678.02,95.91 L676.11,93.99 C675.921517,93.7944481 675.6616,93.6839741 675.39,93.6839741 C675.1184,93.6839741 674.858483,93.7944481 674.67,93.99 L662.67,105.88 L657.6,100.77 C657.41186,100.577587 657.154109,100.469124 656.885,100.469124 C656.615891,100.469124 656.35814,100.577587 656.17,100.77 L654.24,102.68 C654.044448,102.868483 653.933974,103.1284 653.933974,103.4 C653.933974,103.6716 654.044448,103.931517 654.24,104.12 L661.94,111.88 C662.128483,112.075552 662.3884,112.186026 662.66,112.186026 C662.9316,112.186026 663.191517,112.075552 663.38,111.88 L678.01,97.36 C678.216505,97.1720841 678.335045,96.9063913 678.336967,96.6271901 C678.338843,96.3479889 678.22393,96.080708 678.02,95.89 L678.02,95.91 Z M678.02,95.91 L676.11,93.99 C675.921517,93.7944481 675.6616,93.6839741 675.39,93.6839741 C675.1184,93.6839741 674.858483,93.7944481 674.67,93.99 L662.67,105.88 L657.6,100.77 C657.41186,100.577587 657.154109,100.469124 656.885,100.469124 C656.615891,100.469124 656.35814,100.577587 656.17,100.77 L654.24,102.68 C654.044448,102.868483 653.933974,103.1284 653.933974,103.4 C653.933974,103.6716 654.044448,103.931517 654.24,104.12 L661.94,111.88 C662.128483,112.075552 662.3884,112.186026 662.66,112.186026 C662.9316,112.186026 663.191517,112.075552 663.38,111.88 L678.01,97.36 C678.216505,97.1720841 678.335045,96.9063913 678.336967,96.6271901 C678.338843,96.3479889 678.22393,96.080708 678.02,95.89 L678.02,95.91 Z M678.02,95.91 L676.11,93.99 C675.921517,93.7944481 675.6616,93.6839741 675.39,93.6839741 C675.1184,93.6839741 674.858483,93.7944481 674.67,93.99 L662.67,105.88 L657.6,100.77 C657.41186,100.577587 657.154109,100.469124 656.885,100.469124 C656.615891,100.469124 656.35814,100.577587 656.17,100.77 L654.24,102.68 C654.044448,102.868483 653.933974,103.1284 653.933974,103.4 C653.933974,103.6716 654.044448,103.931517 654.24,104.12 L661.94,111.88 C662.128483,112.075552 662.3884,112.186026 662.66,112.186026 C662.9316,112.186026 663.191517,112.075552 663.38,111.88 L678.01,97.36 C678.216505,97.1720841 678.335045,96.9063913 678.336967,96.6271901 C678.338843,96.3479889 678.22393,96.080708 678.02,95.89 L678.02,95.91 Z M678.02,95.91 L676.11,93.99 C675.921517,93.7944481 675.6616,93.6839741 675.39,93.6839741 C675.1184,93.6839741 674.858483,93.7944481 674.67,93.99 L662.67,105.88 L657.6,100.77 C657.41186,100.577587 657.154109,100.469124 656.885,100.469124 C656.615891,100.469124 656.35814,100.577587 656.17,100.77 L654.24,102.68 C654.044448,102.868483 653.933974,103.1284 653.933974,103.4 C653.933974,103.6716 654.044448,103.931517 654.24,104.12 L661.94,111.88 C662.128483,112.075552 662.3884,112.186026 662.66,112.186026 C662.9316,112.186026 663.191517,112.075552 663.38,111.88 L678.01,97.36 C678.216505,97.1720841 678.335045,96.9063913 678.336967,96.6271901 C678.338843,96.3479889 678.22393,96.080708 678.02,95.89 L678.02,95.91 Z" id="Shape" fill="#3ACC6C" opacity="0.9"></path>
            <path d="M715.23,249.04 L713.32,247.11 C713.131517,246.914448 712.8716,246.803974 712.6,246.803974 C712.3284,246.803974 712.068483,246.914448 711.88,247.11 L699.88,259 L694.81,253.89 C694.621517,253.694448 694.3616,253.583974 694.09,253.583974 C693.8184,253.583974 693.558483,253.694448 693.37,253.89 L691.44,255.8 C691.244448,255.988483 691.133974,256.2484 691.133974,256.52 C691.133974,256.7916 691.244448,257.051517 691.44,257.24 L699.13,265 C699.318483,265.195552 699.5784,265.306026 699.85,265.306026 C700.1216,265.306026 700.381517,265.195552 700.57,265 L715.21,250.48 C715.408195,250.294247 715.522296,250.035859 715.526165,249.764251 C715.529841,249.492643 715.422959,249.231186 715.23,249.04 L715.23,249.04 Z M715.23,249.04 L713.32,247.11 C713.131517,246.914448 712.8716,246.803974 712.6,246.803974 C712.3284,246.803974 712.068483,246.914448 711.88,247.11 L699.88,259 L694.81,253.89 C694.621517,253.694448 694.3616,253.583974 694.09,253.583974 C693.8184,253.583974 693.558483,253.694448 693.37,253.89 L691.44,255.8 C691.244448,255.988483 691.133974,256.2484 691.133974,256.52 C691.133974,256.7916 691.244448,257.051517 691.44,257.24 L699.13,265 C699.318483,265.195552 699.5784,265.306026 699.85,265.306026 C700.1216,265.306026 700.381517,265.195552 700.57,265 L715.21,250.48 C715.408195,250.294247 715.522296,250.035859 715.526165,249.764251 C715.529841,249.492643 715.422959,249.231186 715.23,249.04 L715.23,249.04 Z M715.23,249.04 L713.32,247.11 C713.131517,246.914448 712.8716,246.803974 712.6,246.803974 C712.3284,246.803974 712.068483,246.914448 711.88,247.11 L699.88,259 L694.81,253.89 C694.621517,253.694448 694.3616,253.583974 694.09,253.583974 C693.8184,253.583974 693.558483,253.694448 693.37,253.89 L691.44,255.8 C691.244448,255.988483 691.133974,256.2484 691.133974,256.52 C691.133974,256.7916 691.244448,257.051517 691.44,257.24 L699.13,265 C699.318483,265.195552 699.5784,265.306026 699.85,265.306026 C700.1216,265.306026 700.381517,265.195552 700.57,265 L715.21,250.48 C715.408195,250.294247 715.522296,250.035859 715.526165,249.764251 C715.529841,249.492643 715.422959,249.231186 715.23,249.04 L715.23,249.04 Z M715.23,249.04 L713.32,247.11 C713.131517,246.914448 712.8716,246.803974 712.6,246.803974 C712.3284,246.803974 712.068483,246.914448 711.88,247.11 L699.88,259 L694.81,253.89 C694.621517,253.694448 694.3616,253.583974 694.09,253.583974 C693.8184,253.583974 693.558483,253.694448 693.37,253.89 L691.44,255.8 C691.244448,255.988483 691.133974,256.2484 691.133974,256.52 C691.133974,256.7916 691.244448,257.051517 691.44,257.24 L699.13,265 C699.318483,265.195552 699.5784,265.306026 699.85,265.306026 C700.1216,265.306026 700.381517,265.195552 700.57,265 L715.21,250.48 C715.408195,250.294247 715.522296,250.035859 715.526165,249.764251 C715.529841,249.492643 715.422959,249.231186 715.23,249.04 L715.23,249.04 Z M703.34,233.92 C691.74202,233.92 682.34,243.32202 682.34,254.92 C682.34,266.51798 691.74202,275.92 703.34,275.92 C714.93798,275.92 724.34,266.51798 724.34,254.92 C724.34,243.32202 714.93798,233.92 703.34,233.92 Z M703.34,271.92 C696.464142,271.92 690.265325,267.778083 687.634048,261.425618 C685.002771,255.073154 686.457219,247.761151 691.319185,242.899185 C696.181151,238.037219 703.493154,236.582771 709.845618,239.214048 C716.198083,241.845325 720.340047,248.044142 720.340047,254.92 C720.350665,259.431023 718.562703,263.760214 715.371981,266.949059 C712.181258,270.137905 707.851016,271.923319 703.34,271.91 L703.34,271.92 Z M715.23,249.05 L713.32,247.12 C713.131517,246.924448 712.8716,246.813974 712.6,246.813974 C712.3284,246.813974 712.068483,246.924448 711.88,247.12 L699.88,259.01 L694.81,253.9 C694.621517,253.704448 694.3616,253.593974 694.09,253.593974 C693.8184,253.593974 693.558483,253.704448 693.37,253.9 L691.44,255.81 C691.244448,255.998483 691.133974,256.2584 691.133974,256.53 C691.133974,256.8016 691.244448,257.061517 691.44,257.25 L699.13,265.01 C699.318483,265.205552 699.5784,265.316026 699.85,265.316026 C700.1216,265.316026 700.381517,265.205552 700.57,265.01 L715.21,250.49 C715.41136,250.303961 715.527513,250.043414 715.531389,249.769294 C715.535075,249.495174 715.426152,249.231522 715.23,249.04 L715.23,249.05 Z M715.23,249.05 L713.32,247.12 C713.131517,246.924448 712.8716,246.813974 712.6,246.813974 C712.3284,246.813974 712.068483,246.924448 711.88,247.12 L699.88,259.01 L694.81,253.9 C694.621517,253.704448 694.3616,253.593974 694.09,253.593974 C693.8184,253.593974 693.558483,253.704448 693.37,253.9 L691.44,255.81 C691.244448,255.998483 691.133974,256.2584 691.133974,256.53 C691.133974,256.8016 691.244448,257.061517 691.44,257.25 L699.13,265.01 C699.318483,265.205552 699.5784,265.316026 699.85,265.316026 C700.1216,265.316026 700.381517,265.205552 700.57,265.01 L715.21,250.49 C715.41136,250.303961 715.527513,250.043414 715.531389,249.769294 C715.535075,249.495174 715.426152,249.231522 715.23,249.04 L715.23,249.05 Z M715.23,249.05 L713.32,247.12 C713.131517,246.924448 712.8716,246.813974 712.6,246.813974 C712.3284,246.813974 712.068483,246.924448 711.88,247.12 L699.88,259.01 L694.81,253.9 C694.621517,253.704448 694.3616,253.593974 694.09,253.593974 C693.8184,253.593974 693.558483,253.704448 693.37,253.9 L691.44,255.81 C691.244448,255.998483 691.133974,256.2584 691.133974,256.53 C691.133974,256.8016 691.244448,257.061517 691.44,257.25 L699.13,265.01 C699.318483,265.205552 699.5784,265.316026 699.85,265.316026 C700.1216,265.316026 700.381517,265.205552 700.57,265.01 L715.21,250.49 C715.41136,250.303961 715.527513,250.043414 715.531389,249.769294 C715.535075,249.495174 715.426152,249.231522 715.23,249.04 L715.23,249.05 Z M715.23,249.05 L713.32,247.12 C713.131517,246.924448 712.8716,246.813974 712.6,246.813974 C712.3284,246.813974 712.068483,246.924448 711.88,247.12 L699.88,259.01 L694.81,253.9 C694.621517,253.704448 694.3616,253.593974 694.09,253.593974 C693.8184,253.593974 693.558483,253.704448 693.37,253.9 L691.44,255.81 C691.244448,255.998483 691.133974,256.2584 691.133974,256.53 C691.133974,256.8016 691.244448,257.061517 691.44,257.25 L699.13,265.01 C699.318483,265.205552 699.5784,265.316026 699.85,265.316026 C700.1216,265.316026 700.381517,265.205552 700.57,265.01 L715.21,250.49 C715.41136,250.303961 715.527513,250.043414 715.531389,249.769294 C715.535075,249.495174 715.426152,249.231522 715.23,249.04 L715.23,249.05 Z M715.23,249.05 L713.32,247.12 C713.131517,246.924448 712.8716,246.813974 712.6,246.813974 C712.3284,246.813974 712.068483,246.924448 711.88,247.12 L699.88,259.01 L694.81,253.9 C694.621517,253.704448 694.3616,253.593974 694.09,253.593974 C693.8184,253.593974 693.558483,253.704448 693.37,253.9 L691.44,255.81 C691.244448,255.998483 691.133974,256.2584 691.133974,256.53 C691.133974,256.8016 691.244448,257.061517 691.44,257.25 L699.13,265.01 C699.318483,265.205552 699.5784,265.316026 699.85,265.316026 C700.1216,265.316026 700.381517,265.205552 700.57,265.01 L715.21,250.49 C715.41136,250.303961 715.527513,250.043414 715.531389,249.769294 C715.535075,249.495174 715.426152,249.231522 715.23,249.04 L715.23,249.05 Z" id="Shape" fill="#FF3B30" opacity="0.1"></path>
            <path d="M652.36,402.18 L650.45,400.25 C650.261517,400.054448 650.0016,399.943974 649.73,399.943974 C649.4584,399.943974 649.198483,400.054448 649.01,400.25 L637.01,412.14 L631.94,407.03 C631.751517,406.834448 631.4916,406.723974 631.22,406.723974 C630.9484,406.723974 630.688483,406.834448 630.5,407.03 L628.57,408.94 C628.374448,409.128483 628.263974,409.3884 628.263974,409.66 C628.263974,409.9316 628.374448,410.191517 628.57,410.38 L636.26,418.14 C636.448483,418.335552 636.7084,418.446026 636.98,418.446026 C637.2516,418.446026 637.511517,418.335552 637.7,418.14 L652.34,403.62 C652.538195,403.434247 652.652296,403.175859 652.656165,402.904251 C652.659841,402.632643 652.552959,402.371186 652.36,402.18 L652.36,402.18 Z M652.36,402.18 L650.45,400.25 C650.261517,400.054448 650.0016,399.943974 649.73,399.943974 C649.4584,399.943974 649.198483,400.054448 649.01,400.25 L637.01,412.14 L631.94,407.03 C631.751517,406.834448 631.4916,406.723974 631.22,406.723974 C630.9484,406.723974 630.688483,406.834448 630.5,407.03 L628.57,408.94 C628.374448,409.128483 628.263974,409.3884 628.263974,409.66 C628.263974,409.9316 628.374448,410.191517 628.57,410.38 L636.26,418.14 C636.448483,418.335552 636.7084,418.446026 636.98,418.446026 C637.2516,418.446026 637.511517,418.335552 637.7,418.14 L652.34,403.62 C652.538195,403.434247 652.652296,403.175859 652.656165,402.904251 C652.659841,402.632643 652.552959,402.371186 652.36,402.18 L652.36,402.18 Z M652.36,402.18 L650.45,400.25 C650.261517,400.054448 650.0016,399.943974 649.73,399.943974 C649.4584,399.943974 649.198483,400.054448 649.01,400.25 L637.01,412.14 L631.94,407.03 C631.751517,406.834448 631.4916,406.723974 631.22,406.723974 C630.9484,406.723974 630.688483,406.834448 630.5,407.03 L628.57,408.94 C628.374448,409.128483 628.263974,409.3884 628.263974,409.66 C628.263974,409.9316 628.374448,410.191517 628.57,410.38 L636.26,418.14 C636.448483,418.335552 636.7084,418.446026 636.98,418.446026 C637.2516,418.446026 637.511517,418.335552 637.7,418.14 L652.34,403.62 C652.538195,403.434247 652.652296,403.175859 652.656165,402.904251 C652.659841,402.632643 652.552959,402.371186 652.36,402.18 L652.36,402.18 Z M652.36,402.18 L650.45,400.25 C650.261517,400.054448 650.0016,399.943974 649.73,399.943974 C649.4584,399.943974 649.198483,400.054448 649.01,400.25 L637.01,412.14 L631.94,407.03 C631.751517,406.834448 631.4916,406.723974 631.22,406.723974 C630.9484,406.723974 630.688483,406.834448 630.5,407.03 L628.57,408.94 C628.374448,409.128483 628.263974,409.3884 628.263974,409.66 C628.263974,409.9316 628.374448,410.191517 628.57,410.38 L636.26,418.14 C636.448483,418.335552 636.7084,418.446026 636.98,418.446026 C637.2516,418.446026 637.511517,418.335552 637.7,418.14 L652.34,403.62 C652.538195,403.434247 652.652296,403.175859 652.656165,402.904251 C652.659841,402.632643 652.552959,402.371186 652.36,402.18 L652.36,402.18 Z M640.47,387.06 C628.87202,387.06 619.47,396.46202 619.47,408.06 C619.47,419.65798 628.87202,429.06 640.47,429.06 C652.06798,429.06 661.47,419.65798 661.47,408.06 C661.47,396.46202 652.06798,387.06 640.47,387.06 Z M640.47,425.06 C631.081159,425.06 623.47,417.448841 623.47,408.06 C623.47,398.671159 631.081159,391.06 640.47,391.06 C649.858841,391.06 657.470074,398.671159 657.470074,408.06 C657.483346,412.571841 655.696244,416.902591 652.504938,420.092019 C649.313633,423.281447 644.981832,425.066 640.47,425.05 L640.47,425.06 Z M652.36,402.19 L650.45,400.26 C650.261517,400.064448 650.0016,399.953974 649.73,399.953974 C649.4584,399.953974 649.198483,400.064448 649.01,400.26 L637.01,412.15 L631.94,407.04 C631.751517,406.844448 631.4916,406.733974 631.22,406.733974 C630.9484,406.733974 630.688483,406.844448 630.5,407.04 L628.57,408.95 C628.374448,409.138483 628.263974,409.3984 628.263974,409.67 C628.263974,409.9416 628.374448,410.201517 628.57,410.39 L636.26,418.15 C636.448483,418.345552 636.7084,418.456026 636.98,418.456026 C637.2516,418.456026 637.511517,418.345552 637.7,418.15 L652.34,403.63 C652.54136,403.443961 652.657513,403.183414 652.661389,402.909294 C652.665075,402.635174 652.556152,402.371522 652.36,402.18 L652.36,402.19 Z M652.36,402.19 L650.45,400.26 C650.261517,400.064448 650.0016,399.953974 649.73,399.953974 C649.4584,399.953974 649.198483,400.064448 649.01,400.26 L637.01,412.15 L631.94,407.04 C631.751517,406.844448 631.4916,406.733974 631.22,406.733974 C630.9484,406.733974 630.688483,406.844448 630.5,407.04 L628.57,408.95 C628.374448,409.138483 628.263974,409.3984 628.263974,409.67 C628.263974,409.9416 628.374448,410.201517 628.57,410.39 L636.26,418.15 C636.448483,418.345552 636.7084,418.456026 636.98,418.456026 C637.2516,418.456026 637.511517,418.345552 637.7,418.15 L652.34,403.63 C652.54136,403.443961 652.657513,403.183414 652.661389,402.909294 C652.665075,402.635174 652.556152,402.371522 652.36,402.18 L652.36,402.19 Z M652.36,402.19 L650.45,400.26 C650.261517,400.064448 650.0016,399.953974 649.73,399.953974 C649.4584,399.953974 649.198483,400.064448 649.01,400.26 L637.01,412.15 L631.94,407.04 C631.751517,406.844448 631.4916,406.733974 631.22,406.733974 C630.9484,406.733974 630.688483,406.844448 630.5,407.04 L628.57,408.95 C628.374448,409.138483 628.263974,409.3984 628.263974,409.67 C628.263974,409.9416 628.374448,410.201517 628.57,410.39 L636.26,418.15 C636.448483,418.345552 636.7084,418.456026 636.98,418.456026 C637.2516,418.456026 637.511517,418.345552 637.7,418.15 L652.34,403.63 C652.54136,403.443961 652.657513,403.183414 652.661389,402.909294 C652.665075,402.635174 652.556152,402.371522 652.36,402.18 L652.36,402.19 Z M652.36,402.19 L650.45,400.26 C650.261517,400.064448 650.0016,399.953974 649.73,399.953974 C649.4584,399.953974 649.198483,400.064448 649.01,400.26 L637.01,412.15 L631.94,407.04 C631.751517,406.844448 631.4916,406.733974 631.22,406.733974 C630.9484,406.733974 630.688483,406.844448 630.5,407.04 L628.57,408.95 C628.374448,409.138483 628.263974,409.3984 628.263974,409.67 C628.263974,409.9416 628.374448,410.201517 628.57,410.39 L636.26,418.15 C636.448483,418.345552 636.7084,418.456026 636.98,418.456026 C637.2516,418.456026 637.511517,418.345552 637.7,418.15 L652.34,403.63 C652.54136,403.443961 652.657513,403.183414 652.661389,402.909294 C652.665075,402.635174 652.556152,402.371522 652.36,402.18 L652.36,402.19 Z M652.36,402.19 L650.45,400.26 C650.261517,400.064448 650.0016,399.953974 649.73,399.953974 C649.4584,399.953974 649.198483,400.064448 649.01,400.26 L637.01,412.15 L631.94,407.04 C631.751517,406.844448 631.4916,406.733974 631.22,406.733974 C630.9484,406.733974 630.688483,406.844448 630.5,407.04 L628.57,408.95 C628.374448,409.138483 628.263974,409.3984 628.263974,409.67 C628.263974,409.9416 628.374448,410.201517 628.57,410.39 L636.26,418.15 C636.448483,418.345552 636.7084,418.456026 636.98,418.456026 C637.2516,418.456026 637.511517,418.345552 637.7,418.15 L652.34,403.63 C652.54136,403.443961 652.657513,403.183414 652.661389,402.909294 C652.665075,402.635174 652.556152,402.371522 652.36,402.18 L652.36,402.19 Z" id="Shape" fill="#3ACC6C" opacity="0.9"></path>
            <path d="M612.04,555.32 L610.13,553.4 C609.941517,553.204448 609.6816,553.093974 609.41,553.093974 C609.1384,553.093974 608.878483,553.204448 608.69,553.4 L596.69,565.29 L591.62,560.18 C591.431517,559.984448 591.1716,559.873974 590.9,559.873974 C590.6284,559.873974 590.368483,559.984448 590.18,560.18 L588.26,562.1 C588.067587,562.28814 587.959124,562.545891 587.959124,562.815 C587.959124,563.084109 588.067587,563.34186 588.26,563.53 L595.96,571.29 C596.148483,571.485552 596.4084,571.596026 596.68,571.596026 C596.9516,571.596026 597.211517,571.485552 597.4,571.29 L612.03,556.77 C612.230039,556.58258 612.344371,556.32126 612.346286,556.047147 C612.348152,555.773033 612.237435,555.510161 612.04,555.32 Z M612.04,555.32 L610.13,553.4 C609.941517,553.204448 609.6816,553.093974 609.41,553.093974 C609.1384,553.093974 608.878483,553.204448 608.69,553.4 L596.69,565.29 L591.62,560.18 C591.431517,559.984448 591.1716,559.873974 590.9,559.873974 C590.6284,559.873974 590.368483,559.984448 590.18,560.18 L588.26,562.1 C588.067587,562.28814 587.959124,562.545891 587.959124,562.815 C587.959124,563.084109 588.067587,563.34186 588.26,563.53 L595.96,571.29 C596.148483,571.485552 596.4084,571.596026 596.68,571.596026 C596.9516,571.596026 597.211517,571.485552 597.4,571.29 L612.03,556.77 C612.230039,556.58258 612.344371,556.32126 612.346286,556.047147 C612.348152,555.773033 612.237435,555.510161 612.04,555.32 Z M612.04,555.32 L610.13,553.4 C609.941517,553.204448 609.6816,553.093974 609.41,553.093974 C609.1384,553.093974 608.878483,553.204448 608.69,553.4 L596.69,565.29 L591.62,560.18 C591.431517,559.984448 591.1716,559.873974 590.9,559.873974 C590.6284,559.873974 590.368483,559.984448 590.18,560.18 L588.26,562.1 C588.067587,562.28814 587.959124,562.545891 587.959124,562.815 C587.959124,563.084109 588.067587,563.34186 588.26,563.53 L595.96,571.29 C596.148483,571.485552 596.4084,571.596026 596.68,571.596026 C596.9516,571.596026 597.211517,571.485552 597.4,571.29 L612.03,556.77 C612.230039,556.58258 612.344371,556.32126 612.346286,556.047147 C612.348152,555.773033 612.237435,555.510161 612.04,555.32 Z M612.04,555.32 L610.13,553.4 C609.941517,553.204448 609.6816,553.093974 609.41,553.093974 C609.1384,553.093974 608.878483,553.204448 608.69,553.4 L596.69,565.29 L591.62,560.18 C591.431517,559.984448 591.1716,559.873974 590.9,559.873974 C590.6284,559.873974 590.368483,559.984448 590.18,560.18 L588.26,562.1 C588.067587,562.28814 587.959124,562.545891 587.959124,562.815 C587.959124,563.084109 588.067587,563.34186 588.26,563.53 L595.96,571.29 C596.148483,571.485552 596.4084,571.596026 596.68,571.596026 C596.9516,571.596026 597.211517,571.485552 597.4,571.29 L612.03,556.77 C612.230039,556.58258 612.344371,556.32126 612.346286,556.047147 C612.348152,555.773033 612.237435,555.510161 612.04,555.32 Z M600.15,540.21 C591.656293,540.21 583.998931,545.326486 580.74853,553.173648 C577.498129,561.02081 579.2948,570.053284 585.300758,576.059242 C591.306716,582.0652 600.33919,583.861871 608.186352,580.61147 C616.033514,577.361069 621.15,569.703707 621.15,561.21 C621.15,549.61202 611.74798,540.21 600.15,540.21 Z M600.15,578.21 C590.761159,578.21 583.15,570.598841 583.15,561.21 C583.15,551.821159 590.761159,544.21 600.15,544.21 C609.538841,544.21 617.15,551.821159 617.15,561.21 C617.144479,570.594935 609.534937,578.200002 600.15,578.2 L600.15,578.21 Z M612.04,555.33 L610.13,553.41 C609.941517,553.214448 609.6816,553.103974 609.41,553.103974 C609.1384,553.103974 608.878483,553.214448 608.69,553.41 L596.69,565.3 L591.62,560.19 C591.431517,559.994448 591.1716,559.883974 590.9,559.883974 C590.6284,559.883974 590.368483,559.994448 590.18,560.19 L588.26,562.11 C588.067587,562.29814 587.959124,562.555891 587.959124,562.825 C587.959124,563.094109 588.067587,563.35186 588.26,563.54 L595.96,571.3 C596.148483,571.495552 596.4084,571.606026 596.68,571.606026 C596.9516,571.606026 597.211517,571.495552 597.4,571.3 L612.03,556.78 C612.233252,556.592315 612.349669,556.328815 612.351587,556.052168 C612.353459,555.775522 612.240662,555.510451 612.04,555.32 L612.04,555.33 Z M612.04,555.33 L610.13,553.41 C609.941517,553.214448 609.6816,553.103974 609.41,553.103974 C609.1384,553.103974 608.878483,553.214448 608.69,553.41 L596.69,565.3 L591.62,560.19 C591.431517,559.994448 591.1716,559.883974 590.9,559.883974 C590.6284,559.883974 590.368483,559.994448 590.18,560.19 L588.26,562.11 C588.067587,562.29814 587.959124,562.555891 587.959124,562.825 C587.959124,563.094109 588.067587,563.35186 588.26,563.54 L595.96,571.3 C596.148483,571.495552 596.4084,571.606026 596.68,571.606026 C596.9516,571.606026 597.211517,571.495552 597.4,571.3 L612.03,556.78 C612.233252,556.592315 612.349669,556.328815 612.351587,556.052168 C612.353459,555.775522 612.240662,555.510451 612.04,555.32 L612.04,555.33 Z M612.04,555.33 L610.13,553.41 C609.941517,553.214448 609.6816,553.103974 609.41,553.103974 C609.1384,553.103974 608.878483,553.214448 608.69,553.41 L596.69,565.3 L591.62,560.19 C591.431517,559.994448 591.1716,559.883974 590.9,559.883974 C590.6284,559.883974 590.368483,559.994448 590.18,560.19 L588.26,562.11 C588.067587,562.29814 587.959124,562.555891 587.959124,562.825 C587.959124,563.094109 588.067587,563.35186 588.26,563.54 L595.96,571.3 C596.148483,571.495552 596.4084,571.606026 596.68,571.606026 C596.9516,571.606026 597.211517,571.495552 597.4,571.3 L612.03,556.78 C612.233252,556.592315 612.349669,556.328815 612.351587,556.052168 C612.353459,555.775522 612.240662,555.510451 612.04,555.32 L612.04,555.33 Z M612.04,555.33 L610.13,553.41 C609.941517,553.214448 609.6816,553.103974 609.41,553.103974 C609.1384,553.103974 608.878483,553.214448 608.69,553.41 L596.69,565.3 L591.62,560.19 C591.431517,559.994448 591.1716,559.883974 590.9,559.883974 C590.6284,559.883974 590.368483,559.994448 590.18,560.19 L588.26,562.11 C588.067587,562.29814 587.959124,562.555891 587.959124,562.825 C587.959124,563.094109 588.067587,563.35186 588.26,563.54 L595.96,571.3 C596.148483,571.495552 596.4084,571.606026 596.68,571.606026 C596.9516,571.606026 597.211517,571.495552 597.4,571.3 L612.03,556.78 C612.233252,556.592315 612.349669,556.328815 612.351587,556.052168 C612.353459,555.775522 612.240662,555.510451 612.04,555.32 L612.04,555.33 Z M612.04,555.33 L610.13,553.41 C609.941517,553.214448 609.6816,553.103974 609.41,553.103974 C609.1384,553.103974 608.878483,553.214448 608.69,553.41 L596.69,565.3 L591.62,560.19 C591.431517,559.994448 591.1716,559.883974 590.9,559.883974 C590.6284,559.883974 590.368483,559.994448 590.18,560.19 L588.26,562.11 C588.067587,562.29814 587.959124,562.555891 587.959124,562.825 C587.959124,563.094109 588.067587,563.35186 588.26,563.54 L595.96,571.3 C596.148483,571.495552 596.4084,571.606026 596.68,571.606026 C596.9516,571.606026 597.211517,571.495552 597.4,571.3 L612.03,556.78 C612.233252,556.592315 612.349669,556.328815 612.351587,556.052168 C612.353459,555.775522 612.240662,555.510451 612.04,555.32 L612.04,555.33 Z" id="Shape" fill="#FF3B30" opacity="0.1"></path>
            <path d="M854.85,172.46 L852.94,170.57 C852.751517,170.374448 852.4916,170.263974 852.22,170.263974 C851.9484,170.263974 851.688483,170.374448 851.5,170.57 L845.26,176.77 L843.01,179 C843.01,179 843.01,179 843.01,179 L842.82,179.18 L842.82,179.18 L841.65,180.35 L841.65,180.35 L839.56,182.42 L834.49,177.31 C834.301517,177.114448 834.0416,177.003974 833.77,177.003974 C833.4984,177.003974 833.238483,177.114448 833.05,177.31 L831.12,179.22 C830.924448,179.408483 830.813974,179.6684 830.813974,179.94 C830.813974,180.2116 830.924448,180.471517 831.12,180.66 L838.38,187.99 L838.81,188.42 C838.970421,188.579285 839.176782,188.684215 839.4,188.72 C839.713248,188.763158 840.028452,188.655618 840.25,188.43 L846.31,182.43 L848.31,180.43 L854.87,173.92 C855.069386,173.728176 855.180386,173.462316 855.17669,173.185663 C855.172807,172.90901 855.054566,172.646291 854.85,172.46 L854.85,172.46 Z M854.85,172.46 L852.94,170.57 C852.751517,170.374448 852.4916,170.263974 852.22,170.263974 C851.9484,170.263974 851.688483,170.374448 851.5,170.57 L845.26,176.77 L843.01,179 C843.01,179 843.01,179 843.01,179 L842.82,179.18 L842.82,179.18 L841.65,180.35 L841.65,180.35 L839.56,182.42 L834.49,177.31 C834.301517,177.114448 834.0416,177.003974 833.77,177.003974 C833.4984,177.003974 833.238483,177.114448 833.05,177.31 L831.12,179.22 C830.924448,179.408483 830.813974,179.6684 830.813974,179.94 C830.813974,180.2116 830.924448,180.471517 831.12,180.66 L838.38,187.99 L838.81,188.42 C838.970421,188.579285 839.176782,188.684215 839.4,188.72 C839.713248,188.763158 840.028452,188.655618 840.25,188.43 L846.31,182.43 L848.31,180.43 L854.87,173.92 C855.069386,173.728176 855.180386,173.462316 855.17669,173.185663 C855.172807,172.90901 855.054566,172.646291 854.85,172.46 L854.85,172.46 Z M854.85,172.46 L852.94,170.57 C852.751517,170.374448 852.4916,170.263974 852.22,170.263974 C851.9484,170.263974 851.688483,170.374448 851.5,170.57 L845.26,176.77 L843.01,179 C843.01,179 843.01,179 843.01,179 L842.82,179.18 L842.82,179.18 L841.65,180.35 L841.65,180.35 L839.56,182.42 L834.49,177.31 C834.301517,177.114448 834.0416,177.003974 833.77,177.003974 C833.4984,177.003974 833.238483,177.114448 833.05,177.31 L831.12,179.22 C830.924448,179.408483 830.813974,179.6684 830.813974,179.94 C830.813974,180.2116 830.924448,180.471517 831.12,180.66 L838.38,187.99 L838.81,188.42 C838.970421,188.579285 839.176782,188.684215 839.4,188.72 C839.713248,188.763158 840.028452,188.655618 840.25,188.43 L846.31,182.43 L848.31,180.43 L854.87,173.92 C855.069386,173.728176 855.180386,173.462316 855.17669,173.185663 C855.172807,172.90901 855.054566,172.646291 854.85,172.46 L854.85,172.46 Z M854.85,172.46 L852.94,170.57 C852.751517,170.374448 852.4916,170.263974 852.22,170.263974 C851.9484,170.263974 851.688483,170.374448 851.5,170.57 L845.26,176.77 L843.01,179 C843.01,179 843.01,179 843.01,179 L842.82,179.18 L842.82,179.18 L841.65,180.35 L841.65,180.35 L839.56,182.42 L834.49,177.31 C834.301517,177.114448 834.0416,177.003974 833.77,177.003974 C833.4984,177.003974 833.238483,177.114448 833.05,177.31 L831.12,179.22 C830.924448,179.408483 830.813974,179.6684 830.813974,179.94 C830.813974,180.2116 830.924448,180.471517 831.12,180.66 L838.38,187.99 L838.81,188.42 C838.970421,188.579285 839.176782,188.684215 839.4,188.72 C839.713248,188.763158 840.028452,188.655618 840.25,188.43 L846.31,182.43 L848.31,180.43 L854.87,173.92 C855.069386,173.728176 855.180386,173.462316 855.17669,173.185663 C855.172807,172.90901 855.054566,172.646291 854.85,172.46 L854.85,172.46 Z M842.96,157.35 C832.64644,157.264001 823.797063,164.680363 822.07848,174.850093 C820.359898,185.019822 826.280887,194.932229 836.05,198.24 C836.27,198.32 836.49,198.4 836.72,198.46 C841.308614,199.894295 846.25043,199.710742 850.72,197.94 C851.760966,197.530481 852.764684,197.031968 853.72,196.45 C861.902811,191.636251 865.838305,181.931244 863.319354,172.777804 C860.800402,163.624365 852.453577,157.299352 842.96,157.35 L842.96,157.35 Z M850.41,193.62 C849.705317,193.967896 848.976818,194.26531 848.23,194.51 C845.04445,195.540236 841.626642,195.613251 838.4,194.72 C837.95,194.59 837.5,194.45 837.07,194.29 C829.494389,191.494227 824.930861,183.755055 826.150994,175.77273 C827.371126,167.790405 834.038189,161.767877 842.103061,161.36282 C850.167933,160.957763 857.404885,166.281963 859.418682,174.101864 C861.43248,181.921765 857.66736,190.079243 850.41,193.62 L850.41,193.62 Z M854.85,172.46 L852.94,170.57 C852.751517,170.374448 852.4916,170.263974 852.22,170.263974 C851.9484,170.263974 851.688483,170.374448 851.5,170.57 L845.26,176.77 L843.01,179 C843.01,179 843.01,179 843.01,179 L842.82,179.18 L842.82,179.18 L841.65,180.35 L841.65,180.35 L839.56,182.42 L834.49,177.31 C834.301517,177.114448 834.0416,177.003974 833.77,177.003974 C833.4984,177.003974 833.238483,177.114448 833.05,177.31 L831.12,179.22 C830.924448,179.408483 830.813974,179.6684 830.813974,179.94 C830.813974,180.2116 830.924448,180.471517 831.12,180.66 L838.38,187.99 L838.81,188.42 C838.970421,188.579285 839.176782,188.684215 839.4,188.72 C839.713248,188.763158 840.028452,188.655618 840.25,188.43 L846.31,182.43 L848.31,180.43 L854.87,173.92 C855.069386,173.728176 855.180386,173.462316 855.17669,173.185663 C855.172807,172.90901 855.054566,172.646291 854.85,172.46 L854.85,172.46 Z M854.85,172.46 L852.94,170.57 C852.751517,170.374448 852.4916,170.263974 852.22,170.263974 C851.9484,170.263974 851.688483,170.374448 851.5,170.57 L845.26,176.77 L843.01,179 C843.01,179 843.01,179 843.01,179 L842.82,179.18 L842.82,179.18 L841.65,180.35 L841.65,180.35 L839.56,182.42 L834.49,177.31 C834.301517,177.114448 834.0416,177.003974 833.77,177.003974 C833.4984,177.003974 833.238483,177.114448 833.05,177.31 L831.12,179.22 C830.924448,179.408483 830.813974,179.6684 830.813974,179.94 C830.813974,180.2116 830.924448,180.471517 831.12,180.66 L838.38,187.99 L838.81,188.42 C838.970421,188.579285 839.176782,188.684215 839.4,188.72 C839.713248,188.763158 840.028452,188.655618 840.25,188.43 L846.31,182.43 L848.31,180.43 L854.87,173.92 C855.069386,173.728176 855.180386,173.462316 855.17669,173.185663 C855.172807,172.90901 855.054566,172.646291 854.85,172.46 L854.85,172.46 Z M854.85,172.46 L852.94,170.57 C852.751517,170.374448 852.4916,170.263974 852.22,170.263974 C851.9484,170.263974 851.688483,170.374448 851.5,170.57 L845.26,176.77 L843.01,179 C843.01,179 843.01,179 843.01,179 L842.82,179.18 L842.82,179.18 L841.65,180.35 L841.65,180.35 L839.56,182.42 L834.49,177.31 C834.301517,177.114448 834.0416,177.003974 833.77,177.003974 C833.4984,177.003974 833.238483,177.114448 833.05,177.31 L831.12,179.22 C830.924448,179.408483 830.813974,179.6684 830.813974,179.94 C830.813974,180.2116 830.924448,180.471517 831.12,180.66 L838.38,187.99 L838.81,188.42 C838.970421,188.579285 839.176782,188.684215 839.4,188.72 C839.713248,188.763158 840.028452,188.655618 840.25,188.43 L846.31,182.43 L848.31,180.43 L854.87,173.92 C855.069386,173.728176 855.180386,173.462316 855.17669,173.185663 C855.172807,172.90901 855.054566,172.646291 854.85,172.46 L854.85,172.46 Z M854.85,172.46 L852.94,170.57 C852.751517,170.374448 852.4916,170.263974 852.22,170.263974 C851.9484,170.263974 851.688483,170.374448 851.5,170.57 L845.26,176.77 L843.01,179 C843.01,179 843.01,179 843.01,179 L842.82,179.18 L842.82,179.18 L841.65,180.35 L841.65,180.35 L839.56,182.42 L834.49,177.31 C834.301517,177.114448 834.0416,177.003974 833.77,177.003974 C833.4984,177.003974 833.238483,177.114448 833.05,177.31 L831.12,179.22 C830.924448,179.408483 830.813974,179.6684 830.813974,179.94 C830.813974,180.2116 830.924448,180.471517 831.12,180.66 L838.38,187.99 L838.81,188.42 C838.970421,188.579285 839.176782,188.684215 839.4,188.72 C839.713248,188.763158 840.028452,188.655618 840.25,188.43 L846.31,182.43 L848.31,180.43 L854.87,173.92 C855.069386,173.728176 855.180386,173.462316 855.17669,173.185663 C855.172807,172.90901 855.054566,172.646291 854.85,172.46 L854.85,172.46 Z M854.85,172.46 L852.94,170.57 C852.751517,170.374448 852.4916,170.263974 852.22,170.263974 C851.9484,170.263974 851.688483,170.374448 851.5,170.57 L845.26,176.77 L843.01,179 C843.01,179 843.01,179 843.01,179 L842.82,179.18 L842.82,179.18 L841.65,180.35 L841.65,180.35 L839.56,182.42 L834.49,177.31 C834.301517,177.114448 834.0416,177.003974 833.77,177.003974 C833.4984,177.003974 833.238483,177.114448 833.05,177.31 L831.12,179.22 C830.924448,179.408483 830.813974,179.6684 830.813974,179.94 C830.813974,180.2116 830.924448,180.471517 831.12,180.66 L838.38,187.99 L838.81,188.42 C838.970421,188.579285 839.176782,188.684215 839.4,188.72 C839.713248,188.763158 840.028452,188.655618 840.25,188.43 L846.31,182.43 L848.31,180.43 L854.87,173.92 C855.069386,173.728176 855.180386,173.462316 855.17669,173.185663 C855.172807,172.90901 855.054566,172.646291 854.85,172.46 L854.85,172.46 Z" id="Shape" fill="#3ACC6C" opacity="0.9"></path>
            <rect id="Rectangle" fill="#FF3B30" opacity="0.8" x="168.58" y="81.43" width="439.1" height="40.76" rx="20.38"></rect>
            <rect id="Rectangle" fill="#FF3B30" opacity="0.8" x="168.58" y="158" width="616.71" height="40.76" rx="20.38"></rect>
            <rect id="Rectangle" fill="#FF3B30" opacity="0.4" x="168.58" y="234.57" width="476.52" height="40.76" rx="20.38"></rect>
            <rect id="Rectangle" fill="#FF3B30" opacity="0.4" x="168.58" y="311.14" width="616.71" height="40.76" rx="20.38"></rect>
            <rect id="Rectangle" fill="#FF3B30" opacity="0.8" x="168.58" y="387.71" width="415.38" height="40.76" rx="20.38"></rect>
            <rect id="Rectangle" fill="#FF3B30" opacity="0.4" x="168.58" y="464.29" width="616.71" height="40.76" rx="20.38"></rect>
            <rect id="Rectangle" fill="#FF3B30" opacity="0.4" x="168.58" y="540.86" width="373.1" height="40.76" rx="20.38"></rect>
            <path d="M745.38,80.78 C733.78202,80.78 724.38,90.1820203 724.38,101.78 C724.38,113.37798 733.78202,122.78 745.38,122.78 C756.97798,122.78 766.38,113.37798 766.38,101.78 C766.38,90.1820203 756.97798,80.78 745.38,80.78 L745.38,80.78 Z M745.38,118.78 C735.991159,118.78 728.38,111.168841 728.38,101.78 C728.38,92.3911593 735.991159,84.78 745.38,84.78 C754.768841,84.78 762.380027,92.3911593 762.380027,101.78 C762.388001,106.289292 760.598863,110.615907 757.40843,113.802586 C754.217998,116.989265 749.88928,118.773309 745.38,118.76 L745.38,118.78 Z" id="Shape" fill="#FF3B30" opacity="0.1"></path>
            <path d="M751.82,110.89 L754.47,108.25 C754.691669,108.028657 754.816228,107.728256 754.816228,107.415 C754.816228,107.101744 754.691669,106.801343 754.47,106.58 L749.69,101.81 L754.46,97.04 C754.681669,96.8186573 754.806228,96.5182565 754.806228,96.205 C754.806228,95.8917435 754.681669,95.5913427 754.46,95.37 L751.81,92.73 C751.590368,92.5089352 751.291621,92.3846211 750.98,92.3846211 C750.668379,92.3846211 750.369632,92.5089352 750.15,92.73 L745.38,97.5 L740.61,92.73 C740.388657,92.5083312 740.088256,92.3837716 739.775,92.3837716 C739.461744,92.3837716 739.161343,92.5083312 738.94,92.73 L736.3,95.37 C736.075843,95.590012 735.949558,95.8909111 735.949558,96.205 C735.949558,96.5190889 736.075843,96.819988 736.3,97.04 L741.07,101.81 L736.31,106.57 C736.085843,106.790012 735.959558,107.090911 735.959558,107.405 C735.959558,107.719089 736.085843,108.019988 736.31,108.24 L738.95,110.88 C739.171343,111.101669 739.471744,111.226228 739.785,111.226228 C740.098256,111.226228 740.398657,111.101669 740.62,110.88 L745.39,106.11 L750.16,110.88 C750.378298,111.102393 750.676296,111.228511 750.987919,111.230409 C751.299543,111.232265 751.599039,111.109747 751.82,110.89 Z" id="Path" fill="#FF3B30" opacity="0.1"></path>
            <path d="M921.69,157.349914 C910.09202,157.349914 900.69,166.75202 900.69,178.35 C900.69,189.94798 910.09202,199.35 921.69,199.35 C933.28798,199.35 942.690086,189.94798 942.690086,178.35 C942.705996,172.775565 940.498639,167.424834 936.556902,163.483098 C932.615166,159.541361 927.264435,157.334004 921.69,157.349914 L921.69,157.349914 Z M921.69,195.350025 C913.964941,195.363288 907.202151,190.166345 905.226251,182.698244 C903.250351,175.230142 906.558179,167.368729 913.27903,163.559939 C919.999881,159.751149 928.443803,160.952698 933.835431,166.485063 C939.227059,172.017429 940.210672,180.489504 936.23,187.11 C933.158753,192.210038 927.643392,195.331868 921.69,195.34 L921.69,195.350025 Z" id="Shape" fill="#FF3B30" opacity="0.1"></path>
            <path d="M928.11,187.46 L930.76,184.82 C930.981669,184.598657 931.106228,184.298256 931.106228,183.985 C931.106228,183.671744 930.981669,183.371343 930.76,183.15 L925.98,178.38 L930.76,173.61 C930.981065,173.390368 931.105379,173.091621 931.105379,172.78 C931.105379,172.468379 930.981065,172.169632 930.76,171.95 L928.11,169.3 C927.890368,169.078935 927.591621,168.954621 927.28,168.954621 C926.968379,168.954621 926.669632,169.078935 926.45,169.3 L921.69,174.07 L916.92,169.3 C916.700368,169.078935 916.401621,168.954621 916.09,168.954621 C915.778379,168.954621 915.479632,169.078935 915.26,169.3 L912.61,171.95 C912.388935,172.169632 912.264621,172.468379 912.264621,172.78 C912.264621,173.091621 912.388935,173.390368 912.61,173.61 L917.38,178.38 L912.61,183.15 C912.388331,183.371343 912.263772,183.671744 912.263772,183.985 C912.263772,184.298256 912.388331,184.598657 912.61,184.82 L915.26,187.46 C915.476884,187.686151 915.776658,187.81401 916.09,187.81401 C916.403342,187.81401 916.703116,187.686151 916.92,187.46 L921.69,182.69 L926.47,187.46 C926.92519,187.907246 927.65481,187.907246 928.11,187.46 L928.11,187.46 Z" id="Path" fill="#FF3B30" opacity="0.1"></path>
            <g id="Group" opacity="0.7" transform="translate(657.000000, 540.000000)" fill="#FF6584">
                <path d="M21.32,0.21 C9.72202025,0.21 0.32,9.61202025 0.32,21.21 C0.32,32.8079797 9.72202025,42.21 21.32,42.21 C32.9179797,42.21 42.32,32.8079797 42.32,21.21 C42.32,9.61202025 32.9179797,0.21 21.32,0.21 Z M21.32,38.21 C11.9311593,38.21 4.32,30.5988407 4.32,21.21 C4.32,11.8211593 11.9311593,4.21 21.32,4.21 C30.7088407,4.21 38.3200474,11.8211593 38.3200474,21.21 C38.3306652,25.7210235 36.5427031,30.0502139 33.3519806,33.2390595 C30.1612581,36.4279051 25.8310164,38.2133195 21.32,38.2 L21.32,38.21 Z" id="Shape"></path>
                <path d="M27.76,30.32 L30.4,27.68 C30.6216688,27.4586573 30.7462284,27.1582565 30.7462284,26.845 C30.7462284,26.5317435 30.6216688,26.2313427 30.4,26.01 L25.63,21.24 L30.4,16.47 C30.6210648,16.2503678 30.7453789,15.9516215 30.7453789,15.64 C30.7453789,15.3283785 30.6210648,15.0296322 30.4,14.81 L27.76,12.16 C27.5386573,11.9383312 27.2382565,11.8137716 26.925,11.8137716 C26.6117435,11.8137716 26.3113427,11.9383312 26.09,12.16 L21.32,16.93 L16.55,12.16 C16.3303678,11.9389352 16.0316215,11.8146211 15.72,11.8146211 C15.4083785,11.8146211 15.1096322,11.9389352 14.89,12.16 L12.24,14.81 C12.0189352,15.0296322 11.8946211,15.3283785 11.8946211,15.64 C11.8946211,15.9516215 12.0189352,16.2503678 12.24,16.47 L17.01,21.24 L12.24,26.01 C12.0183312,26.2313427 11.8937716,26.5317435 11.8937716,26.845 C11.8937716,27.1582565 12.0183312,27.4586573 12.24,27.68 L14.89,30.32 C15.1068842,30.546151 15.4066583,30.6740101 15.72,30.6740101 C16.0333417,30.6740101 16.3331158,30.546151 16.55,30.32 L21.32,25.55 L26.09,30.32 C26.3113427,30.5416688 26.6117435,30.6662284 26.925,30.6662284 C27.2382565,30.6662284 27.5386573,30.5416688 27.76,30.32 L27.76,30.32 Z" id="Path"></path>
            </g>
            <ellipse id="Oval" fill="#FF3B30" opacity="0.1" cx="767.54" cy="809.27" rx="118.88" ry="5.8"></ellipse>
            <path d="M870.39,398.57 C870.39,398.57 842.28,347.19 847.03,338.83 C851.78,330.47 855.25,318.37 855.25,318.37 C855.25,318.37 865.63,311.27 865.63,308.37 C865.63,305.47 873.85,298.76 878.18,295.84 C882.51,292.92 880.34,279.13 878.18,277.46 C876.02,275.79 872.59,269.94 872.59,269.94 C872.59,269.94 875.59,261.59 872.59,259.08 C869.59,256.57 873.03,254.08 872.59,251.56 C872.15,249.04 872.59,239.87 872.59,239.87 C869.08,234.99 865.19,232.71 861.53,231.87 L861.21,230.55 L859.36,222.76 C859.36,222.76 868.36,205.51 853.76,196.48 C852.727287,195.833485 851.647601,195.265228 850.53,194.78 C850.53,194.78 850.53,194.36 850.45,193.65 C850.25,191.07 849.64,184.6 848.33,180.44 C847.57,178.02 846.58,176.39 845.33,176.76 C845.023042,176.848904 844.741858,177.010071 844.51,177.23 C843.915033,177.769113 843.393861,178.384431 842.96,179.06 L842.96,179.06 C842.942684,179.100166 842.919051,179.137302 842.89,179.17 L842.89,179.17 C841.232329,182.145402 840.070446,185.37098 839.45,188.72 C839.006562,190.700084 838.672721,192.703129 838.45,194.72 C837.817557,195.921141 837.259831,197.160162 836.78,198.43 C835.01,203.02 832.94,210.97 836.71,216.85 C839.91,221.85 844.22,228.72 847.35,233.72 L847.45,233.88 L847.64,234.19 L847.31,234.4 L847.36,235.17 L847.65,239.38 L850.12,275.75 C849.392521,275.539128 848.65052,275.382038 847.9,275.28 C846.830698,275.123583 845.750554,275.053357 844.67,275.07 C842.56,266.78 836.77,259.07 835.72,250.41 C835.61359,249.543955 835.556831,248.672531 835.55,247.8 C835.64,242.35 837,236.88 836.89,231.44 C836.89,230.44 836.89,229.44 836.79,228.44 L836.79,228.44 C836.79,228.17 836.79,227.89 836.71,227.61 C835.598876,219.574913 830.596636,212.604701 823.34,208.98 C820.83,207.73 818.11,206.9 815.67,205.53 C810.03,202.37 806.42,196.67 801.3,192.76 C797.49,189.85 791.8,188.29 787.55,189.76 C785.296852,190.099618 783.063621,190.560284 780.86,191.14 L780.86,191.14 C775.488392,192.545612 770.33646,194.6858 765.55,197.5 C764.9,197.89 764.25,198.29 763.63,198.75 C762.276265,199.633412 761.20396,200.88617 760.54,202.36 C760.110189,203.608939 759.94668,204.934043 760.06,206.25 C760.06,207.2 760.06,208.17 760.12,209.12 C759.84,225.12 742.6,237.5 741.18,253.12 C741.18,253.49 741.12,253.86 741.1,254.23 C741.1,254.34 741.1,254.45 741.1,254.57 C741.1,255.02 741.1,255.48 741.1,255.94 L741.1,255.94 C741.1,256.15 741.1,256.35 741.1,256.56 C741.1,256.77 741.1,256.98 741.1,257.19 C741.35,264.04 744.91,270.42 745.56,277.24 C745.62,277.85 745.65,278.45 745.66,279.06 C745.549446,282.193253 744.952312,285.290256 743.89,288.24 C741.722946,288.81755 739.636723,289.664134 737.68,290.76 C732.44,294.13 722.98,299.95 719.53,311.08 C718.642874,313.969553 718.201139,316.977393 718.22,320 C718.161672,330.680751 717.184738,341.336693 715.3,351.85 C714.863892,354.498497 714.249156,357.114467 713.46,359.68 C713.385751,359.929532 713.365301,360.191979 713.4,360.45 L711.32,387.45 L710.95,392.2 L710.43,398.96 C710.43,398.96 710.58,399.37 710.8,400.06 C711.125943,401.085457 711.399628,402.126797 711.62,403.18 C712.201474,405.468352 712.293479,407.853657 711.89,410.18 C711.684491,411.168427 711.173805,412.067375 710.43,412.75 C710.36603,412.806399 710.308966,412.870177 710.26,412.94 C709.67,413.77 709.14,416.24 708.68,419.82 C708.5,421.22 708.33,422.82 708.16,424.48 C707.16,435.13 706.54,451.07 706.16,464.25 C705.8,477.25 705.67,487.52 705.67,487.52 C707.353834,488.606561 709.155315,489.498915 711.04,490.18 C710.9,490.53 710.75,490.89 710.61,491.27 C708.909868,495.682396 707.813296,500.304148 707.35,505.01 C706.51,514.84 709.26,525.76 722.97,531.38 C723.845953,531.744187 724.744485,532.051491 725.66,532.3 C728.66,533.1 730.87,532.88 732.5,531.88 C732.5,532.47 732.57,533.04 732.6,533.61 C732.74,536.05 732.86,538.28 732.92,540.15 C733.35,551.85 736.25,572.31 736.25,572.31 C736.25,572.31 737.25,580.67 736.38,583.17 C735.51,585.67 736.38,595.7 736.38,595.7 C736.38,595.7 739.38,600.7 736.38,603.22 C733.38,605.74 732.49,618.22 733.38,619.93 C733.390822,619.992871 733.390822,620.057129 733.38,620.12 C734.04,624.27 730.31,685.93 730.31,685.93 C730.31,685.93 726.78,695.37 723.97,705.17 C721.23,714.71 719.17,724.59 721.71,726.44 C722.97,727.36 725.9,728.05 729.62,728.58 C729.62,728.99 729.56,729.4 729.52,729.82 C729.16,734.23 728.59,738.98 727.77,740.18 C726.58,741.88 725.33,755.06 724.77,762.18 L724.71,762.97 C723.428969,766.007808 722.353219,769.12815 721.49,772.31 C721.49,772.31 711.92,796.31 715.16,802.54 C715.461743,803.099777 715.86532,803.598315 716.35,804.01 L716.35,804.01 C716.445947,804.111199 716.549591,804.204812 716.66,804.29 C721.27,807.98 732.82,808.75 737.01,808.92 L736.85,814.86 L736.85,815.08 L742.3,815.08 L742.3,814.93 C742.3,814.18 742.42,810.74 742.6,806.14 C742.6,805.32 742.66,804.46 742.7,803.58 C742.7,802.89 742.77,802.19 742.8,801.47 C744.40436,797.207114 745.207828,792.684639 745.17,788.13 C745.175755,782.899386 745.882034,777.693104 747.27,772.65 C747.955449,770.052326 748.882837,767.524608 750.04,765.1 C750.04,765.1 751.74,756.1 749.37,749.73 C748.918157,748.465163 748.240509,747.292833 747.37,746.27 C747.37,746.06 747.37,745.85 747.37,745.63 C747.37,745.41 747.37,745.15 747.37,744.9 C747.37,744.65 747.37,744.49 747.37,744.27 C747.316656,739.962279 747.745999,735.662136 748.65,731.45 C748.645299,731.383416 748.645299,731.316584 748.65,731.25 C748.73,730.9 748.82,730.57 748.91,730.25 L748.97,730.03 L750.74,730.09 C756.17,730.24 760.16,730.24 760.16,730.24 C760.16,730.24 764.49,708.1 764.06,698.5 C764.06,698.08 764.06,697.64 764.06,697.2 C763.91,687.66 766.68,674.69 766.68,674.69 L770.14,640.86 C770.14,640.86 768.41,635 770.14,630.86 C771.21,628.28 773.42,623.49 774.96,620.19 C775.68,618.66 776.25,617.46 776.49,616.94 L776.63,616.66 C776.084655,616.473088 775.566737,616.214129 775.09,615.89 L775.09,615.89 C773.68,614.95 772.42,613.11 776.64,610.4 C783.13,606.22 780.97,595.78 780.97,595.78 C780.97,595.78 779.06,592.02 781.31,588.68 C783.56,585.34 781.31,572.81 781.31,572.81 C783.145588,569.482274 784.614205,565.96497 785.69,562.32 C787.3,557.32 791.37,532.87 793.29,521.08 C793.92,517.21 794.29,514.71 794.29,514.71 L794.35,515.32 L794.41,515.98 L794.41,515.98 L794.95,521.55 L795.02,522.29 L796.02,532.82 C796.02,532.82 798.02,560.5 796.77,571.35 C796.77,571.42 796.77,571.49 796.77,571.55 C796.672496,572.674011 796.427042,573.780233 796.04,574.84 C793.74,580.04 794.16,600.7 794.28,605.27 C794.28,605.64 794.28,605.94 794.28,606.19 C794.28,606.44 792.65,610.27 793.06,613.25 L793.06,613.25 C793.143072,614.005171 793.414738,614.72732 793.85,615.35 C794.448895,616.322586 794.718872,617.462097 794.62,618.6 L794.62,618.7 C794.60943,619.181999 794.569355,619.662899 794.5,620.14 C794.196688,622.075486 793.68712,623.972957 792.98,625.8 C792.98,625.8 790.66,631.9 791.54,635.09 C791.54,635.09 791.54,635.09 791.54,635.09 C791.645711,635.503581 791.840217,635.889181 792.11,636.22 C792.31299,636.588421 792.426062,636.99959 792.44,637.42 C792.435291,637.456515 792.435291,637.493485 792.44,637.53 C793.25,644.26 791.16,673.97 789.92,690.23 C789.42,696.65 789.06,700.97 789.06,700.97 L785.69,736.51 L786.03,736.75 C786.42,737.03 787.15,737.51 788.13,738.09 C788.13,738.09 788.13,738.14 788.13,738.17 L787.98,739.24 C787.49,742.66 786.83,746.64 786.11,749.68 C786.05,749.91 786,750.13 785.94,750.34 C784.627686,750.56922 783.377684,751.069902 782.27,751.81 C774.99,764.74 778.21,774.99 782.27,777.97 C783.42,778.81 784.2,781.16 784.72,784.08 L785.72,796.97 C785.72,797.49 785.72,797.97 785.72,798.45 C785.721358,798.850839 785.785467,799.248994 785.91,799.63 L786.22,803.54 L786.64,808.98 L789.96,808.98 L789.96,802.4 L790.14,802.4 C795.38,802.58 803.83,802.8 807.51,802.51 L807.61,802.51 C808,802.51 808.33,802.44 808.61,802.4 C808.809049,802.370115 809.003781,802.316396 809.19,802.24 C811.14,801.3 816,787.52 811.62,784.39 C807.24,781.26 806.27,772.39 806.27,772.39 C805.89,771.23 805.51,770.13 805.12,769.08 C805.12,768.85 805.12,768.63 805.12,768.4 C805,764.11 805.05,759.46 805.64,756.94 C806.3,754.17 806.64,748.35 806.78,743.25 C806.78,742.86 806.78,742.48 806.78,742.1 L806.78,741.98 C807.539198,741.788105 808.284291,741.544195 809.01,741.25 L809.17,741.18 C810.509497,740.619262 811.764781,739.875515 812.9,738.97 L825.02,684.68 L826.31,678.37 L833.62,642.57 C833.62,642.57 831.03,630.04 833.62,627.96 C834.62,627.2 834.83,623.96 834.77,620.21 C834.67,613.65 833.62,605.4 833.62,605.4 C833.62,605.4 837.08,599.97 838.82,596.63 C840.56,593.29 838.82,584.52 838.82,584.52 L842.27,564.52 C842.27,564.52 846.17,540.57 855.69,520.57 C862.69,505.82 858.23,465.99 853.69,444.79 C853.57,444.24 853.45,443.7 853.33,443.18 L853.33,443.1 C855.47,442.04 858.09,440.76 860.89,439.42 L861.95,438.92 C865.5,437.25 869.26,435.53 872.63,434.1 L872.85,434.01 C875.275593,432.952175 877.755768,432.024196 880.28,431.23 C881.023682,431.002581 881.787007,430.845229 882.56,430.76 C888.56,430.33 870.39,398.57 870.39,398.57 Z M735.08,466.57 L736.88,466.57 C736.67,466.96 736.47,467.36 736.27,467.76 C736.15,468 736.03,468.23 735.92,468.47 C735.26,469.84 734.65,471.24 734.15,472.61 C734.35,471.13 734.6,469.52 734.88,467.8 C734.95,467.34 735.01,466.94 735.08,466.57 Z M730.22,492.57 C730.224424,492.523438 730.224424,492.476562 730.22,492.43 L730.07,491.96 C729.96,491.64 729.86,491.32 729.76,491.01 C730.38,490.816667 731.01,490.606667 731.65,490.38 L731.78,490.33 C731.78,490.44 731.78,490.55 731.78,490.66 C731.78,491.13 731.67,491.6 731.61,492.06 L731.61,492.06 C731.615411,492.119878 731.615411,492.180122 731.61,492.24 C731.61,492.62 731.52,492.98 731.48,493.34 C731.39,494.06 731.3,494.76 731.22,495.43 C731.03,494.8 730.84,494.18 730.64,493.57 C730.44,493.28 730.33,492.94 730.22,492.57 Z" id="Shape" fill="url(#linearGradient-1)"></path>
            <path d="M860.04,238.31 L849.24,242.14 L845.32,235.64 C842.32,230.64 838.16,223.8 835.09,218.83 C829.67,210.08 836.76,196.76 836.76,196.76 C836.76,196.76 838,183.44 842.58,179.28 C847.16,175.12 848.41,196.76 848.41,196.76 C866.72,205.09 856.91,224.65 856.91,224.65 L858.69,232.42 L860.04,238.31 Z" id="Path" fill="#A1616A"></path>
            <path d="M860.04,238.31 L849.24,242.14 L845.32,235.64 L845.32,235.07 C845.32,235.07 851.51,230.82 858.73,232.42 L860.04,238.31 Z" id="Path" fill="#000000" opacity="0.1"></path>
            <path d="M842.58,282.11 L847.99,277.57 L845.28,236.35 C845.28,236.35 859.23,226.78 869.64,241.77 C869.64,241.77 869.22,250.93 869.64,253.43 C870.06,255.93 866.73,258.43 869.64,260.92 C872.55,263.41 869.64,271.74 869.64,271.74 C869.64,271.74 872.93,277.57 875.01,279.24 C877.09,280.91 879.18,294.64 875.01,297.56 C870.84,300.48 862.94,307.13 862.94,310.05 C862.94,312.97 852.94,320.05 852.94,320.05 L844.19,308.39 L842.58,282.11 Z" id="Path" fill="#5A5773"></path>
            <path d="M725.58,532.34 C705.4,523.78 709.88,502.87 713.68,492.34 C714.441817,490.207458 715.333485,488.12356 716.35,486.1 L727.69,479.25 C727.69,479.25 730,485.14 732.47,493.05 C738.18,511.36 744.77,540.48 725.58,532.34 Z" id="Path" fill="#A1616A"></path>
            <path d="M753.32,723.13 C751.951836,725.788048 750.943004,728.61614 750.32,731.54 C749.337816,736.253764 748.918218,741.06739 749.07,745.88 C749.15,749.21 749.43,751.39 749.43,751.39 L726.95,766.85 C726.95,766.85 727.08,765.04 727.3,762.38 C727.88,755.3 729.09,742.16 730.23,740.46 C731.02,739.27 731.57,734.53 731.92,730.14 C732.27,725.75 732.41,721.88 732.41,721.88 C732.41,721.88 759.41,711.73 753.32,723.13 Z" id="Path" fill="#A1616A"></path>
            <path d="M806.41,734.22 C806.41,734.22 806.41,738.52 806.25,743.52 C806.09,748.52 805.79,754.41 805.16,757.17 C804.58,759.68 804.54,764.32 804.65,768.59 C804.8,773.59 805.16,778.09 805.16,778.09 C805.16,778.09 782.16,756.39 784.55,754.67 C785.18,754.21 785.8,752.36 786.37,749.9 C787.07,746.9 787.7,742.9 788.17,739.49 C788.73,735.49 789.08,732.19 789.08,732.19 L806.41,734.22 Z" id="Path" fill="#A1616A"></path>
            <path d="M753.32,723.13 C751.951836,725.788048 750.943004,728.61614 750.32,731.54 C744.166841,731.386716 738.025517,730.919442 731.92,730.14 C732.26,725.84 732.41,721.88 732.41,721.88 C732.41,721.88 759.41,711.73 753.32,723.13 Z" id="Path" fill="#000000" opacity="0.1"></path>
            <path d="M806.41,734.22 C806.41,734.22 806.41,738.52 806.25,743.52 C799.09,745.35 791.73,741.69 788.17,739.52 C788.73,735.52 789.08,732.22 789.08,732.22 L806.41,734.22 Z" id="Path" fill="#000000" opacity="0.1"></path>
            <path d="M853.4,521.57 C844.24,541.57 840.49,565.28 840.49,565.28 L837.17,585.28 C837.17,585.28 838.83,594.02 837.17,597.35 C835.51,600.68 832.17,606.09 832.17,606.09 C832.17,606.09 834.67,626.5 832.17,628.57 C829.67,630.64 832.17,643.15 832.17,643.15 L823.84,685.2 L812.18,739.32 C800.94,748.48 785.98,736.82 785.98,736.82 L789.28,701.44 C789.28,701.44 794.28,639.44 792.2,636.9 C790.12,634.36 793.03,626.5 793.03,626.5 C793.03,626.5 795.95,619 793.87,616.08 C791.79,613.16 794.28,606.92 794.28,606.92 C794.28,606.92 793.45,581.53 795.95,575.7 C798.45,569.87 795.95,533.8 795.95,533.8 L794.95,522.57 L794.38,516.35 L794.32,515.74 C794.32,515.74 793.94,518.24 793.32,522.1 C791.48,533.85 787.56,558.2 786.01,563.21 C784.937041,566.805184 783.489083,570.277602 781.69,573.57 C781.69,573.57 783.85,586.06 781.69,589.39 C779.53,592.72 781.36,596.47 781.36,596.47 C781.36,596.47 783.44,606.87 777.19,611.04 C770.94,615.21 777.19,617.28 777.19,617.28 C777.19,617.28 772.61,627.28 770.95,631.44 C769.29,635.6 770.95,641.44 770.95,641.44 L767.69,675.15 C767.69,675.15 764.77,689.3 765.19,698.88 C765.61,708.46 761.39,730.57 761.39,730.57 C761.39,730.57 729.33,730.57 724.39,726.82 C719.45,723.07 732.69,686.39 732.69,686.39 C732.69,686.39 736.44,622.27 735.6,620.6 C734.76,618.93 735.6,606.45 738.52,603.95 C741.44,601.45 738.52,596.46 738.52,596.46 C738.52,596.46 737.69,586.46 738.52,583.97 C739.35,581.48 738.39,573.14 738.39,573.14 C738.39,573.14 735.6,552.74 735.19,541.08 C734.78,529.42 732.69,503.19 732.69,503.19 C732.69,503.19 734.87,486.97 735.2,479.25 C735.32,476.41 736.59,472.87 738.15,469.53 C739.953347,465.75628 742.025341,462.116922 744.35,458.64 C744.35,458.64 843.02,429.5 847.19,432.41 C848.29,433.18 849.89,438.41 851.47,445.99 C855.84,467.12 860.14,506.81 853.4,521.57 Z" id="Path" fill="#605D82"></path>
            <circle id="Oval" fill="#A1616A" cx="792.61" cy="238.31" r="28.73"></circle>
            <path d="M851.44,445.99 C848.13,447.68 845.91,448.86 845.91,448.86 C845.91,448.86 799.28,470.93 785.98,469.68 C775.72,468.68 749.53,469.24 738.12,469.53 C739.923347,465.75628 741.995341,462.116922 744.32,458.64 C744.32,458.64 842.99,429.5 847.16,432.41 C848.26,433.18 849.86,438.39 851.44,445.99 Z" id="Path" fill="#000000" opacity="0.1"></path>
            <path d="M772.63,284.19 C772.63,284.19 745.98,288.36 739.74,292.52 C733.5,296.68 721,304.57 721,321.67 C721,338.77 718.09,356.22 716.42,361.22 C714.75,366.22 742.69,406.57 742.69,406.57 L732.69,467.77 C732.69,467.77 772.69,466.53 786.01,467.77 C799.33,469.01 845.94,446.96 845.94,446.96 C845.94,446.96 873.42,432.38 879.25,431.96 C885.08,431.54 867.59,399.9 867.59,399.9 C867.59,399.9 840.53,348.69 845.11,340.36 C849.69,332.03 853.02,319.96 853.02,319.96 L848.02,277.49 C848.02,277.49 840.53,275 834.28,279.57 C828.03,284.14 806.8,281.66 806.8,281.66 L772.63,284.19 Z" id="Path" fill="#5A5773"></path>
            <path d="M727.46,358.3 L717.05,361.22 L714.13,400.36 C714.13,400.36 717.88,410.76 714.13,414.1 C710.38,417.44 709.55,488.62 709.55,488.62 C709.55,488.62 721.63,497.37 735.78,490.7 C735.78,490.7 733.7,482.79 739.95,454.06 C746.2,425.33 746.19,410.76 746.19,410.76 C746.19,410.76 746.19,374.96 749.11,369.13 C752.03,363.3 749.11,348.73 749.11,348.73 C749.11,348.73 743.28,340.82 743.69,337.9 C744.1,334.98 727.46,358.3 727.46,358.3 Z" id="Path" fill="#000000" opacity="0.1"></path>
            <path d="M732.45,493.05 C726.318665,495.117522 719.642983,494.872119 713.68,492.36 C714.441817,490.227458 715.333485,488.14356 716.35,486.12 L727.69,479.25 C727.69,479.25 729.98,485.14 732.45,493.05 Z" id="Path" fill="#000000" opacity="0.1"></path>
            <path d="M726.83,358.3 L716.42,361.22 L713.51,400.36 C713.51,400.36 717.26,410.76 713.51,414.1 C709.76,417.44 708.93,488.62 708.93,488.62 C708.93,488.62 721,497.37 735.16,490.7 C735.16,490.7 733.08,482.79 739.32,454.06 C745.56,425.33 745.57,410.76 745.57,410.76 C745.57,410.76 745.57,374.96 748.48,369.13 C751.39,363.3 748.48,348.73 748.48,348.73 C748.48,348.73 742.65,340.82 743.07,337.9 C743.49,334.98 726.83,358.3 726.83,358.3 Z" id="Path" fill="#5A5773"></path>
            <path d="M833.42,364.57 C833.42,364.57 828.01,411.2 812.18,419.94 C812.18,419.92 847.57,409.93 833.42,364.57 Z" id="Path" fill="#000000" opacity="0.1"></path>
            <path d="M753.9,368.71 C753.9,368.71 773.46,378.29 768.9,384.95 C764.34,391.61 753.9,368.71 753.9,368.71 Z" id="Path" fill="#000000" opacity="0.1"></path>
            <path d="M753.9,387.87 C753.9,387.87 766.39,400.77 763.9,405.35 C761.41,409.93 753.9,387.87 753.9,387.87 Z" id="Path" fill="#000000" opacity="0.1"></path>
            <path d="M854.69,280.86 C854.69,280.86 859.59,289.19 860.06,294.6 C860.53,300.01 854.69,280.86 854.69,280.86 Z" id="Path" fill="#000000" opacity="0.1"></path>
            <path d="M854.69,269.62 C854.69,269.62 857.15,267.54 863.43,269.62 C869.71,271.7 854.69,269.62 854.69,269.62 Z" id="Path" fill="#000000" opacity="0.1"></path>
            <path d="M830.61,512.98 C820.293979,514.443473 809.774202,513.096113 800.16,509.08 L794.91,522.51 L794.34,516.29 C795.19,511.08 796.86,505.49 800.16,504.08 C800.16,504.08 811.69,513.29 830.61,512.98 Z" id="Path" fill="#000000" opacity="0.1"></path>
            <path d="M745.2,530.46 C745.2,530.46 770.81,535.77 777.99,534.84 L745.2,530.46 Z" id="Path" fill="#000000" opacity="0.1"></path>
            <path d="M747.86,537.18 C747.86,537.18 758.79,536.71 764.25,538.9 L747.86,537.18 Z" id="Path" fill="#000000" opacity="0.1"></path>
            <path d="M749.11,541.71 C754.097938,542.763776 759.159527,543.432414 764.25,543.71 L749.11,541.71 Z" id="Path" fill="#000000" opacity="0.1"></path>
            <path d="M748.48,599.01 C748.95,598.69 770.34,593.7 773,597.29 L748.48,599.01 Z" id="Path" fill="#000000" opacity="0.1"></path>
            <path d="M748.48,605.57 C748.48,605.57 767.06,603.39 767.53,605.57 C768,607.75 748.48,605.57 748.48,605.57 Z" id="Path" fill="#000000" opacity="0.1"></path>
            <path d="M748.48,611.5 C748.48,611.5 768.31,607.44 770.65,608.37 C772.99,609.3 748.48,611.5 748.48,611.5 Z" id="Path" fill="#000000" opacity="0.1"></path>
            <path d="M749.42,751.39 L726.94,766.85 C726.94,766.85 727.07,765.04 727.29,762.38 C732.29,750.07 738.8,743.58 738.8,743.58 C743.87,742.27 747.07,743.49 749.06,745.88 C749.14,749.21 749.42,751.39 749.42,751.39 Z" id="Path" fill="#000000" opacity="0.1"></path>
            <path d="M751.61,765.29 C748.438741,772.521447 746.840113,780.344158 746.92,788.24 C747.045092,794.727941 745.399449,801.127279 742.16,806.75 C741.693085,807.54023 741.164792,808.292546 740.58,809 C740.58,809 724.96,808.88 719.49,804.34 C718.890771,803.867303 718.39689,803.274646 718.04,802.6 C714.91,796.36 724.13,772.47 724.13,772.47 C728.97,754.04 738.8,744.21 738.8,744.21 C756.29,739.68 751.61,765.29 751.61,765.29 Z" id="Path" fill="#5A5773"></path>
            <path d="M742.16,806.75 C741.693085,807.54023 741.164792,808.292546 740.58,809 C740.58,809 724.96,808.88 719.49,804.34 C722.18,795.44 730.77,768.52 734.78,773.09 C738.56,777.39 741.19,798.09 742.16,806.75 Z" id="Path" fill="#000000" opacity="0.1"></path>
            <path d="M740,774.77 L738.91,815.1 L744.15,815.1 C744.15,815.1 745,779.72 747.34,774.77 C749.68,769.82 740,774.77 740,774.77 Z" id="Path" fill="#5A5773"></path>
            <path d="M805.16,778.09 C805.16,778.09 782.16,756.39 784.55,754.67 C785.18,754.21 785.8,752.36 786.37,749.9 C790.78,749.12 798.37,750.97 804.65,768.59 C804.8,773.57 805.16,778.09 805.16,778.09 Z" id="Path" fill="#000000" opacity="0.1"></path>
            <path d="M808.59,802.29 C808.411681,802.356841 808.227564,802.407055 808.04,802.44 C805.34,802.92 795.39,802.64 789.82,802.44 C787.712187,802.340049 786.04456,800.619899 786.01,798.51 C786.01,797.01 786.01,795.18 785.89,793.23 C785.63,787.07 784.89,779.74 782.68,778.09 C778.77,775.09 775.68,764.9 782.68,752.01 C782.68,752.01 796.1,741.77 805.78,772.57 C805.78,772.57 806.72,781.37 810.94,784.49 C815.16,787.61 810.47,801.35 808.59,802.29 Z" id="Path" fill="#5A5773"></path>
            <path d="M808.04,802.44 C805.34,802.92 795.39,802.64 789.82,802.44 C787.712187,802.340049 786.04456,800.619899 786.01,798.51 C786.01,797.01 786.01,795.18 785.89,793.23 C787.58,785.76 790.01,778.09 793.14,776.34 C793.14,776.34 802.61,775.27 808.04,802.44 Z" id="Path" fill="#000000" opacity="0.1"></path>
            <polygon id="Path" fill="#5A5773" points="784.38 775.43 786.89 809 790.09 809 790.09 772.57"></polygon>
            <path d="M792.2,192.57 C783.128663,193.245255 774.347547,196.066043 766.58,200.8 C764.58,202.01 762.58,203.47 761.75,205.64 C761.03,207.52 761.33,209.64 761.36,211.64 C761.63,228.87 742.43,241.9 743.03,259.11 C743.27,265.94 746.7,272.3 747.33,279.11 C748.38,290.46 741.66,300.92 735.22,310.33 C741.854257,310.729628 748.388253,308.563563 753.47,304.28 C760.280944,326.937011 761.169224,350.961891 756.05,374.06 L765.26,374.06 C766.170145,374.000724 767.083226,374.116132 767.95,374.4 C768.760337,374.780308 769.484985,375.321243 770.08,375.99 C778.69,384.56 784.46,397.23 781.17,408.93 L800.77,401.58 C805.46,399.82 810.22,398.03 814.3,395.12 C818.38,392.21 821.8,388.02 822.66,383.12 C823.19,380.12 823.02,376.54 825.49,374.8 C826.704311,374.144748 828.003226,373.660178 829.35,373.36 C834.73,371.47 837.11,365.25 838.21,359.65 C839.549435,352.779435 839.969782,345.761323 839.46,338.78 C838.59,327.08 835.13,315.2 837.98,303.78 C839.59,297.37 843.17,291.39 843.46,284.78 C843.93,273.86 835.4,264.47 834.13,253.62 C833.24,246.05 835.97,238.41 835.08,230.85 C834.077143,222.930782 829.273134,215.999123 822.21,212.28 C819.8,211.04 817.21,210.2 814.83,208.84 C809.4,205.69 805.93,200.01 801,196.11 C796.07,192.21 787.86,190.74 784.15,195.82 L792.2,192.57 Z" id="Path" fill="#000000" opacity="0.1"></path>
            <path d="M792.2,191.29 C783.124459,191.980451 774.34306,194.818468 766.58,199.57 C764.58,200.78 762.58,202.24 761.75,204.42 C761.03,206.3 761.33,208.42 761.36,210.42 C761.63,227.64 742.43,240.67 743.03,257.88 C743.27,264.71 746.7,271.07 747.33,277.88 C748.38,289.24 741.66,299.69 735.22,309.1 C741.854257,309.499628 748.388253,307.333563 753.47,303.05 C760.280944,325.707011 761.169224,349.731891 756.05,372.83 L765.26,372.83 C766.170145,372.770724 767.083226,372.886132 767.95,373.17 C768.760337,373.550308 769.484985,374.091243 770.08,374.76 C778.69,383.33 784.46,396 781.17,407.7 L800.77,400.35 C805.46,398.59 810.22,396.8 814.3,393.89 C818.38,390.98 821.8,386.79 822.66,381.89 C823.19,378.89 823.02,375.31 825.49,373.57 C826.703009,372.914166 828.002482,372.432754 829.35,372.14 C834.73,370.24 837.11,364.02 838.21,358.42 C839.549435,351.549435 839.969782,344.531323 839.46,337.55 C838.59,325.85 835.13,313.97 837.98,302.55 C839.59,296.14 843.17,290.16 843.46,283.55 C843.93,272.63 835.4,263.24 834.13,252.39 C833.24,244.82 835.97,237.18 835.08,229.62 C834.077143,221.700782 829.273134,214.769123 822.21,211.05 C819.8,209.81 817.21,208.98 814.83,207.61 C809.4,204.46 805.93,198.78 801,194.88 C796.07,190.98 787.86,189.51 784.15,194.59 L792.2,191.29 Z" id="Path" fill="#4A4347"></path>
            <g id="Group" opacity="0.1" transform="translate(735.000000, 206.000000)" fill="#000000">
                <path d="M26.34,0.2 C26.3000655,0.58872198 26.2800393,0.979232115 26.28,1.37 C26.31,0.98 26.33,0.57 26.34,0.2 Z" id="Path"></path>
                <path d="M99.06,40.24 C99.42,34.94 100.6,29.62 100.16,24.34 C99.79,29.64 98.61,34.95 99.06,40.24 Z" id="Path"></path>
                <path d="M12.33,66.57 C11.75,60.37 8.86,54.57 8.18,48.37 C8.04459273,49.5046487 7.99445218,50.6478533 8.03,51.79 C8.27,58.55 11.62,64.85 12.3,71.58 C12.4652549,69.9145392 12.4752982,68.2373204 12.33,66.57 L12.33,66.57 Z" id="Path"></path>
                <path d="M102.98,91.22 C102.043304,95.2891634 101.70641,99.4733901 101.98,103.64 C102.084642,101.210457 102.419475,98.796314 102.98,96.43 C104.59,90.02 108.17,84.04 108.46,77.43 C108.507249,76.2542506 108.45372,75.0766145 108.3,73.91 C107.56,79.86 104.45,85.35 102.98,91.22 Z" id="Path"></path>
                <path d="M18.47,91.76 C14.3033849,95.2624077 9.13854364,97.3619367 3.71,97.76 C2.57,99.54 1.39,101.29 0.22,103 C6.85425665,103.399628 13.3882532,101.233563 18.47,96.95 C22.1167485,109.083752 24.0751454,121.661909 24.29,134.33 C24.5806757,119.923388 22.6169592,105.559916 18.47,91.76 Z" id="Path"></path>
                <path d="M103.21,147.04 C102.11,152.64 99.73,158.86 94.35,160.76 C93.005138,161.061783 91.7068764,161.542745 90.49,162.19 C88.02,163.94 88.19,167.54 87.67,170.51 C86.8,175.45 83.39,179.65 79.3,182.56 C75.21,185.47 70.46,187.26 65.77,189.02 L47.07,196.02 C46.9779588,197.901063 46.6760872,199.765959 46.17,201.58 L65.77,194.23 C70.46,192.47 75.22,190.68 79.3,187.77 C83.38,184.86 86.8,180.67 87.67,175.77 C88.19,172.77 88.02,169.19 90.49,167.45 C91.7030087,166.794166 93.0024824,166.312754 94.35,166.02 C99.73,164.12 102.11,157.9 103.21,152.3 C104.348585,146.472408 104.821617,140.534354 104.62,134.6 C104.483869,138.777733 104.012352,142.937779 103.21,147.04 L103.21,147.04 Z" id="Path"></path>
                <path d="M35.08,163.43 C34.484985,162.761243 33.7603366,162.220308 32.95,161.84 C32.0832263,161.556132 31.170145,161.440724 30.26,161.5 L22.09,161.5 C21.77,163.25 21.43,164.99 21.09,166.72 L30.3,166.72 C31.210145,166.660724 32.1232263,166.776132 32.99,167.06 C33.8003366,167.440308 34.524985,167.981243 35.12,168.65 C41.42,174.92 46.2,183.39 47.01,192.07 C48.01,181.64 42.69,170.95 35.08,163.43 Z" id="Path"></path>
            </g>
            <path d="M724.39,403.48 C724.39,403.48 731.83,400.36 733.49,403.48 C735.15,406.6 724.39,403.48 724.39,403.48 Z" id="Path" fill="#000000" opacity="0.1"></path>
            <path d="M726.97,408.83 C726.97,408.83 734.41,405.7 736.08,408.83 C737.75,411.96 726.97,408.83 726.97,408.83 Z" id="Path" fill="#000000" opacity="0.1"></path>
            <path d="M1003.85,747.48 C1003.85,747.48 1009.35,754.67 1001.32,765.48 C993.29,776.29 986.67,785.48 989.32,792.25 C989.32,792.25 1001.44,772.1 1011.32,771.82 C1021.2,771.54 1014.69,759.57 1003.85,747.48 Z" id="Path" fill="#FF3B30"></path>
            <path d="M1003.85,747.48 C1004.32956,748.175855 1004.70674,748.936952 1004.97,749.74 C1014.59,761.04 1019.72,771.59 1010.47,771.85 C1001.86,772.1 991.53,787.5 989.05,791.39 C989.131568,791.691376 989.228359,791.988423 989.34,792.28 C989.34,792.28 1001.46,772.13 1011.34,771.85 C1021.22,771.57 1014.69,759.57 1003.85,747.48 Z" id="Path" fill="#000000" opacity="0.1"></path>
            <path d="M1014.06,756.64 C1014.06,759.17 1013.78,761.22 1013.43,761.22 C1013.08,761.22 1012.8,759.22 1012.8,756.64 C1012.8,754.06 1013.15,755.3 1013.5,755.3 C1013.85,755.3 1014.06,754.11 1014.06,756.64 Z" id="Path" fill="#FFD037"></path>
            <path d="M1017.57,759.66 C1015.35,760.87 1013.41,761.6 1013.25,761.29 C1013.09,760.98 1014.74,759.75 1016.96,758.54 C1019.18,757.33 1018.31,758.22 1018.47,758.54 C1018.63,758.86 1019.79,758.45 1017.57,759.66 Z" id="Path" fill="#FFD037"></path>
            <path d="M974.83,747.48 C974.83,747.48 969.34,754.67 977.37,765.48 C985.4,776.29 992.02,785.48 989.37,792.25 C989.37,792.25 977.26,772.1 967.37,771.82 C957.48,771.54 963.99,759.57 974.83,747.48 Z" id="Path" fill="#FF3B30"></path>
            <path d="M974.83,747.48 C974.355226,748.17866 973.97839,748.939061 973.71,749.74 C964.09,761.04 958.97,771.59 968.21,771.85 C976.83,772.1 987.21,787.5 989.64,791.39 C989.559586,791.692913 989.459371,791.990219 989.34,792.28 C989.34,792.28 977.23,772.13 967.34,771.85 C957.45,771.57 963.99,759.57 974.83,747.48 Z" id="Path" fill="#000000" opacity="0.1"></path>
            <path d="M964.62,756.64 C964.62,759.17 964.91,761.22 965.26,761.22 C965.61,761.22 965.89,759.22 965.89,756.64 C965.89,754.06 965.54,755.3 965.19,755.3 C964.84,755.3 964.62,754.11 964.62,756.64 Z" id="Path" fill="#FFD037"></path>
            <path d="M961.12,759.66 C963.34,760.87 965.27,761.6 965.44,761.29 C965.61,760.98 963.94,759.75 961.72,758.54 C959.5,757.33 960.38,758.22 960.21,758.54 C960.04,758.86 958.9,758.45 961.12,759.66 Z" id="Path" fill="#FFD037"></path>
            <path d="M966.37,791.34 C966.37,791.34 981.73,790.86 986.37,787.57 C991.01,784.28 1010,780.34 1011.14,785.57 C1012.28,790.8 1034.23,811.86 1016.89,812 C999.55,812.14 976.59,809.3 971.97,806.49 C967.35,803.68 966.37,791.34 966.37,791.34 Z" id="Path" fill="#A8A8A8"></path>
            <path d="M1017.19,810.21 C999.85,810.35 976.89,807.51 972.27,804.7 C968.76,802.55 967.35,794.86 966.88,791.32 L966.37,791.32 C966.37,791.32 967.37,803.7 971.96,806.52 C976.55,809.34 999.54,812.17 1016.88,812.03 C1021.88,812.03 1023.61,810.21 1023.52,807.57 C1022.82,809.19 1020.91,810.18 1017.19,810.21 Z" id="Path" fill="#000000" opacity="0.2"></path>
            <rect id="Rectangle" fill="#FF3B30" opacity="0.1" x="119.64" y="16.69" width="872" height="26.19"></rect>
            <circle id="Oval" fill="#FEFEFE" cx="137.14" cy="29.79" r="5.55"></circle>
            <circle id="Oval" fill="#FEFEFE" cx="154.14" cy="29.79" r="5.55"></circle>
            <circle id="Oval" fill="#FEFEFE" cx="171.14" cy="29.79" r="5.55"></circle>
            <path d="M460.13,778.81 C460.13,778.81 417.85,776.26 422.83,805.88 C422.83,805.88 421.83,811.12 426.59,813.5 C426.59,813.5 426.67,811.3 430.93,812.05 C432.446324,812.300781 433.986642,812.374608 435.52,812.27 C437.59488,812.124561 439.566735,811.310557 441.14,809.95 L441.14,809.95 C441.14,809.95 453.02,805.04 457.64,785.62 C457.64,785.62 461.06,781.38 460.92,780.29 L453.79,783.29 C453.79,783.29 456.23,788.43 454.31,792.71 C454.31,792.71 454.08,783.47 452.71,783.71 C452.43,783.76 449,785.49 449,785.49 C449,785.49 453.2,794.49 450,800.98 C450,800.98 451.2,789.93 447.66,786.14 L442.66,789.07 C442.66,789.07 447.56,798.34 444.24,805.89 C444.24,805.89 445.09,794.3 441.6,789.79 L437.05,793.34 C437.05,793.34 441.66,802.47 438.85,808.73 C438.85,808.73 438.48,795.24 436.07,794.22 C436.07,794.22 432.07,797.73 431.48,799.22 C431.48,799.22 434.63,805.84 432.68,809.34 C432.68,809.34 431.48,800.34 430.49,800.34 C430.49,800.34 426.49,806.29 426.11,810.34 C426.11,810.34 426.28,804.27 429.53,799.74 C427.242209,800.167851 425.131065,801.259942 423.46,802.88 C423.46,802.88 424.07,798.67 430.51,798.3 C430.51,798.3 433.79,793.79 434.66,793.51 C434.66,793.51 428.26,792.98 424.38,794.7 C424.38,794.7 427.8,790.7 435.84,792.53 L440.33,788.86 C440.33,788.86 431.9,787.71 428.33,788.98 C428.33,788.98 432.44,785.47 441.54,788.03 L446.43,785.1 C446.43,785.1 439.25,783.56 434.97,784.1 C434.97,784.1 439.48,781.67 447.87,784.31 L451.36,782.74 C451.36,782.74 446.1,781.74 444.56,781.54 C443.02,781.34 442.94,780.95 442.94,780.95 C446.271629,780.393769 449.692296,780.774612 452.82,782.05 C452.82,782.05 460.26,779.28 460.13,778.81 Z" id="Path" fill="#FF3B30"></path>
            <ellipse id="Oval" fill="#FF3B30" opacity="0.1" cx="431" cy="816.08" rx="29.92" ry="5.06"></ellipse>
            <path d="M386.06,780.39 C386.06,780.39 362.22,778.95 365.06,795.65 C364.762606,797.388278 365.618534,799.12032 367.18,799.94 C367.18,799.94 367.18,798.71 369.62,799.13 C370.475729,799.270584 371.344938,799.310856 372.21,799.25 C373.381973,799.17381 374.49614,798.713381 375.38,797.94 L375.38,797.94 C375.38,797.94 382.08,795.18 384.68,784.23 C384.68,784.23 386.61,781.84 386.53,781.23 L382.53,782.95 C382.53,782.95 383.91,785.85 382.83,788.26 C382.83,788.26 382.7,783.06 381.92,783.18 C381.77,783.18 379.83,784.18 379.83,784.18 C379.83,784.18 382.2,789.24 380.41,792.91 C380.41,792.91 381.09,786.69 379.09,784.55 L376.26,786.2 C376.26,786.2 379.03,791.42 377.15,795.68 C377.15,795.68 377.63,789.15 375.67,786.61 L373.1,788.61 C373.1,788.61 375.7,793.75 374.1,797.29 C374.1,797.29 373.9,789.68 372.54,789.1 C371.564117,789.922551 370.69413,790.863077 369.95,791.9 C369.95,791.9 371.73,795.63 370.62,797.6 C370.62,797.6 369.95,792.54 369.39,792.51 C369.39,792.51 367.16,795.87 366.92,798.17 C367.028542,796.035814 367.693936,793.967233 368.85,792.17 C367.561741,792.413735 366.372921,793.029002 365.43,793.94 C365.43,793.94 365.77,791.57 369.43,791.36 C369.43,791.36 371.28,788.82 371.78,788.66 C371.78,788.66 368.17,788.36 365.98,789.33 C365.98,789.33 367.9,787.09 372.44,788.11 L374.97,786.04 C374.97,786.04 370.22,785.39 368.2,786.11 C368.2,786.11 370.52,784.11 375.65,785.57 L378.41,783.92 C376.289801,783.455697 374.118469,783.26747 371.95,783.36 C371.95,783.36 374.49,781.99 379.22,783.48 L381.22,782.59 C381.22,782.59 378.22,782.01 377.38,781.92 C376.54,781.83 376.47,781.59 376.47,781.59 C378.348255,781.276806 380.276589,781.49145 382.04,782.21 C382.04,782.21 386.13,780.65 386.06,780.39 Z" id="Path" fill="#FF3B30"></path>
            <ellipse id="Oval" fill="#FF3B30" opacity="0.1" cx="369.63" cy="801.4" rx="16.87" ry="2.85"></ellipse>
            <path d="M431.43,744.98 C431.43,744.98 402.65,743.24 406.05,763.41 C405.687765,765.506805 406.71736,767.598298 408.6,768.59 C408.6,768.59 408.6,767.09 411.55,767.59 C412.583615,767.764672 413.634418,767.81503 414.68,767.74 C416.092021,767.645961 417.434099,767.090861 418.5,766.16 L418.5,766.16 C418.5,766.16 426.59,762.82 429.74,749.6 C429.74,749.6 432.07,746.72 431.97,745.97 L427.12,748.05 C427.12,748.05 428.78,751.55 427.47,754.46 C427.47,754.46 427.31,748.18 426.38,748.32 C426.19,748.32 423.86,749.54 423.86,749.54 C423.86,749.54 426.71,755.64 424.56,760.08 C424.56,760.08 425.38,752.56 422.97,749.98 L419.55,751.98 C419.55,751.98 422.88,758.29 420.62,763.43 C420.62,763.43 421.2,755.54 418.83,752.43 L415.73,754.85 C415.73,754.85 418.87,761.06 416.95,765.33 C416.95,765.33 416.7,756.14 415.06,755.45 C415.06,755.45 412.35,757.84 411.94,758.82 C411.94,758.82 414.08,763.33 412.75,765.71 C412.75,765.71 411.93,759.59 411.26,759.56 C411.26,759.56 408.57,763.62 408.26,766.39 C408.39478,763.821514 409.197943,761.332745 410.59,759.17 C409.032583,759.46702 407.596578,760.214577 406.46,761.32 C406.46,761.32 406.88,758.45 411.26,758.2 C411.26,758.2 413.49,755.12 414.09,754.94 C414.09,754.94 409.73,754.57 407.09,755.74 C407.09,755.74 409.41,753.04 414.88,754.27 L417.94,751.77 C417.94,751.77 412.21,750.99 409.77,751.85 C409.77,751.85 412.57,749.46 418.77,751.21 L422.1,749.21 C422.1,749.21 417.21,748.21 414.29,748.54 C414.29,748.54 417.37,746.88 423.07,748.68 L425.45,747.61 C425.45,747.61 421.87,746.91 420.82,746.8 C419.77,746.69 419.72,746.4 419.72,746.4 C421.988482,746.015455 424.319271,746.271738 426.45,747.14 C426.45,747.14 431.52,745.29 431.43,744.98 Z" id="Path" fill="#FF3B30"></path>
            <ellipse id="Oval" fill="#FF3B30" opacity="0.1" cx="411.61" cy="770.34" rx="20.37" ry="3.44"></ellipse>
            <ellipse id="Oval" fill="#FF3B30" opacity="0.1" cx="621.55" cy="771.76" rx="29.92" ry="5.06"></ellipse>
            <path d="M601.45,748.25 C601.45,748.25 618.52,747.73 623.67,744.07 C628.82,740.41 649.92,736.07 651.2,741.9 C652.48,747.73 676.85,771.12 657.58,771.28 C638.31,771.44 612.8,768.28 607.67,765.15 C602.54,762.02 601.45,748.25 601.45,748.25 Z" id="Path" fill="#A8A8A8"></path>
            <path d="M657.92,769.23 C638.65,769.39 613.15,766.23 608.01,763.1 C604.1,760.72 602.55,752.18 602.01,748.23 L601.44,748.23 C601.44,748.23 602.53,762 607.66,765.13 C612.79,768.26 638.3,771.41 657.57,771.26 C663.13,771.21 665.05,769.26 664.95,766.26 C664.18,768.09 662.06,769.2 657.92,769.23 Z" id="Path" fill="#000000" opacity="0.2"></path>
        </g>
    </g>
</svg>